<?xml version="1.0" encoding="utf-8"?>
<!-- Generator: Adobe Illustrator 25.2.1, SVG Export Plug-In . SVG Version: 6.00 Build 0)  -->
<svg version="1.1" id="Layer_1" xmlns="http://www.w3.org/2000/svg" xmlns:xlink="http://www.w3.org/1999/xlink" x="0px" y="0px"
	 viewBox="0 0 87.85 100" style="enable-background:new 0 0 87.85 100;" xml:space="preserve">
<style type="text/css">
	.st0{fill:#FFFFFF;}
</style>
<g>
	<g>
		<path class="st0" d="M44,41.56c-5.19,0-9.41,4.22-9.41,9.41s4.22,9.41,9.41,9.41s9.41-4.22,9.41-9.41S49.19,41.56,44,41.56z
			 M44,56.31c-2.95,0-5.35-2.4-5.35-5.35c0-2.95,2.4-5.35,5.35-5.35s5.35,2.4,5.35,5.35C49.35,53.91,46.95,56.31,44,56.31z"/>
	</g>
	<g>
		<path class="st0" d="M77.96,50.96c1.13-1.24,2.19-2.48,3.16-3.72c6.43-8.25,8.34-15.64,5.35-20.8
			c-2.98-5.17-10.33-7.21-20.69-5.77c-1.56,0.22-3.16,0.52-4.8,0.88c-0.5-1.6-1.05-3.14-1.64-4.6c-1.01-2.5-2.13-4.71-3.32-6.61l0,0
			c0.67-1.05,1.07-2.29,1.07-3.63c0-3.71-3.02-6.72-6.72-6.72c-1.89,0-3.6,0.79-4.82,2.05C45.03,1.97,44.52,1.93,44,1.93
			c-5.97,0-11.41,5.34-15.34,15.04c-0.59,1.46-1.13,3-1.64,4.6c-1.64-0.36-3.24-0.66-4.8-0.88c-10.36-1.45-17.71,0.6-20.69,5.77
			S0.45,39,6.89,47.25c0.97,1.24,2.02,2.48,3.16,3.72c-0.33,0.36-0.66,0.72-0.97,1.08c-0.73-0.27-1.52-0.43-2.35-0.43
			C3.02,51.62,0,54.63,0,58.34c0,1.78,0.7,3.39,1.83,4.59c-2.1,4.87-2.24,9.18-0.29,12.55c2.36,4.08,7.44,6.22,14.59,6.22
			c1.89,0,3.93-0.15,6.1-0.45c1.56-0.22,3.16-0.52,4.8-0.88c0.5,1.6,1.05,3.14,1.64,4.6C32.59,94.66,38.04,100,44,100
			c5.97,0,11.41-5.34,15.34-15.04c0.59-1.46,1.13-3,1.64-4.6c1.64,0.36,3.24,0.66,4.8,0.88c0.05,0.01,0.09,0.01,0.14,0.02
			c0.74,2.9,3.37,5.06,6.51,5.06c3.3,0,6.04-2.39,6.61-5.52c3.43-0.99,5.96-2.77,7.44-5.32c2.98-5.17,1.08-12.55-5.35-20.8
			C80.15,53.44,79.09,52.2,77.96,50.96z M66.34,24.7c2-0.28,3.86-0.42,5.57-0.42c5.55,0,9.46,1.45,11.05,4.19
			c2.07,3.59,0.23,9.52-5.04,16.28c-0.86,1.1-1.79,2.2-2.79,3.3c-3.13-3.06-6.72-6.05-10.66-8.9c-0.5-4.84-1.3-9.44-2.38-13.68
			C63.54,25.15,64.96,24.89,66.34,24.7z M52.5,65.69c-2.83,1.63-5.67,3.11-8.5,4.44c-2.83-1.33-5.68-2.81-8.5-4.44
			c-2.82-1.63-5.53-3.35-8.1-5.14c-0.26-3.12-0.4-6.32-0.4-9.59c0-3.26,0.14-6.47,0.4-9.59c2.56-1.79,5.27-3.51,8.1-5.14
			c2.83-1.63,5.67-3.11,8.5-4.44c2.83,1.33,5.68,2.81,8.5,4.44c2.82,1.63,5.53,3.35,8.1,5.14c0.26,3.12,0.4,6.32,0.4,9.59
			c0,3.26-0.14,6.47-0.4,9.59C58.04,62.34,55.33,64.06,52.5,65.69z M60.02,65.84c-0.46,3.38-1.09,6.61-1.86,9.64
			c-3.01-0.84-6.12-1.92-9.28-3.21c1.89-0.96,3.78-1.98,5.66-3.06C56.41,68.12,58.24,66.99,60.02,65.84z M39.13,72.27
			c-3.16,1.29-6.27,2.36-9.28,3.21c-0.77-3.03-1.4-6.26-1.86-9.64c1.78,1.16,3.6,2.28,5.48,3.37
			C35.35,70.29,37.24,71.31,39.13,72.27z M23.12,57.4c-2.7-2.09-5.19-4.25-7.43-6.44c2.24-2.19,4.73-4.34,7.43-6.44
			c-0.11,2.12-0.18,4.26-0.18,6.43C22.94,53.14,23,55.28,23.12,57.4z M27.99,36.09c0.46-3.38,1.09-6.61,1.86-9.64
			c3.01,0.84,6.12,1.92,9.28,3.21c-1.89,0.96-3.78,1.98-5.66,3.06C31.59,33.81,29.76,34.93,27.99,36.09z M48.87,29.66
			c3.16-1.29,6.27-2.36,9.28-3.21c0.77,3.03,1.4,6.26,1.86,9.64c-1.78-1.16-3.6-2.28-5.48-3.37C52.65,31.64,50.76,30.62,48.87,29.66
			z M64.89,44.52c2.7,2.09,5.19,4.25,7.43,6.44c-2.24,2.19-4.73,4.34-7.43,6.44c0.11-2.12,0.18-4.27,0.18-6.44
			C65.06,48.79,65,46.64,64.89,44.52z M55.76,10.72c-0.02,0.03-0.04,0.06-0.07,0.09C55.71,10.78,55.73,10.75,55.76,10.72z
			 M55.41,11.15c-0.02,0.03-0.05,0.05-0.07,0.08C55.37,11.2,55.39,11.18,55.41,11.15z M50.36,4.06c1.47,0,2.67,1.2,2.67,2.67
			c0,1.47-1.2,2.67-2.67,2.67c-1.47,0-2.67-1.2-2.67-2.67C47.7,5.25,48.89,4.06,50.36,4.06z M54.25,12.2
			c-0.01,0.01-0.02,0.01-0.02,0.02C54.24,12.21,54.25,12.2,54.25,12.2z M53.87,12.45c-0.04,0.02-0.08,0.05-0.12,0.07
			C53.79,12.5,53.83,12.47,53.87,12.45z M53.39,12.72c-0.04,0.02-0.09,0.04-0.13,0.06C53.3,12.76,53.34,12.74,53.39,12.72z
			 M44.85,2.89C44.85,2.89,44.85,2.89,44.85,2.89C44.85,2.89,44.85,2.89,44.85,2.89z M44.63,3.23c-0.03,0.06-0.07,0.11-0.1,0.17
			C44.56,3.34,44.59,3.29,44.63,3.23z M44.36,3.73c-0.04,0.07-0.07,0.14-0.1,0.21C44.28,3.87,44.32,3.8,44.36,3.73z M44.11,4.26
			c-0.03,0.08-0.06,0.16-0.09,0.25C44.05,4.43,44.08,4.34,44.11,4.26z M32.43,18.49C35.56,10.75,39.64,6.22,43.68,6
			c-0.03,0.24-0.04,0.48-0.04,0.73c0,3.71,3.02,6.72,6.72,6.72c0.88,0,1.72-0.18,2.5-0.49c0.96,1.6,1.87,3.44,2.72,5.52
			c0.52,1.29,1.01,2.66,1.46,4.07c-4.21,1.18-8.6,2.79-13.04,4.78c-4.44-1.99-8.82-3.59-13.03-4.78
			C31.42,21.14,31.9,19.78,32.43,18.49z M43.92,4.83c-0.03,0.09-0.05,0.19-0.07,0.28C43.87,5.01,43.89,4.92,43.92,4.83z M43.77,5.42
			c-0.04,0.19-0.07,0.38-0.09,0.57C43.7,5.8,43.73,5.61,43.77,5.42z M5.05,28.47c1.58-2.74,5.5-4.19,11.05-4.19
			c1.71,0,3.57,0.14,5.57,0.42c1.38,0.19,2.8,0.46,4.25,0.77c-1.08,4.24-1.89,8.84-2.38,13.68c-3.94,2.85-7.53,5.84-10.66,8.9
			c-1-1.1-1.93-2.2-2.79-3.3C4.82,37.99,2.98,32.06,5.05,28.47z M12.27,54.55c-0.1-0.15-0.21-0.29-0.32-0.43
			C12.06,54.26,12.17,54.4,12.27,54.55z M11.75,53.89c-0.06-0.07-0.12-0.13-0.18-0.2C11.64,53.76,11.69,53.83,11.75,53.89z
			 M10.88,53.07c-0.02-0.02-0.04-0.03-0.06-0.04C10.84,53.04,10.86,53.05,10.88,53.07z M11.33,53.46c-0.05-0.05-0.1-0.09-0.15-0.14
			C11.23,53.36,11.28,53.41,11.33,53.46z M6.72,55.67c1.47,0,2.67,1.2,2.67,2.67c0,1.47-1.2,2.67-2.67,2.67s-2.67-1.2-2.67-2.67
			C4.06,56.87,5.25,55.67,6.72,55.67z M5.27,64.9c-0.16-0.04-0.32-0.08-0.47-0.12C4.96,64.83,5.11,64.87,5.27,64.9z M4.57,64.7
			c-0.11-0.04-0.22-0.08-0.32-0.12C4.35,64.63,4.46,64.67,4.57,64.7z M3.98,64.47c-0.08-0.04-0.17-0.08-0.25-0.12
			C3.82,64.4,3.9,64.44,3.98,64.47z M3.44,64.2c-0.02-0.01-0.05-0.03-0.07-0.04C3.4,64.17,3.42,64.19,3.44,64.2z M2.59,63.63
			c0,0-0.01-0.01-0.01-0.01C2.58,63.63,2.59,63.63,2.59,63.63z M2.22,63.32c-0.01-0.01-0.03-0.03-0.05-0.04
			C2.19,63.29,2.2,63.3,2.22,63.32z M21.66,77.23c-8.49,1.19-14.54-0.19-16.61-3.78c-1.23-2.12-1.08-5.07,0.33-8.52l0,0
			c0.43,0.09,0.88,0.13,1.34,0.13c3.71,0,6.72-3.02,6.72-6.72c0-1.41-0.43-2.71-1.17-3.79c0.2-0.22,0.4-0.44,0.61-0.67
			c3.13,3.05,6.72,6.05,10.66,8.9c0.5,4.84,1.3,9.44,2.38,13.68C24.47,76.77,23.04,77.04,21.66,77.23z M55.58,83.44
			c-3.22,7.94-7.44,12.5-11.58,12.5c-4.14,0-8.36-4.56-11.58-12.5c-0.52-1.29-1.01-2.66-1.46-4.07c4.21-1.18,8.6-2.79,13.03-4.78
			c4.44,1.99,8.82,3.59,13.04,4.78C56.59,80.79,56.1,82.15,55.58,83.44z M65.75,80.41c0.01,0.07,0.02,0.15,0.03,0.22
			C65.78,80.55,65.76,80.48,65.75,80.41z M65.7,79.6c0-0.22,0.01-0.43,0.03-0.65C65.71,79.17,65.7,79.38,65.7,79.6
			c0,0.19,0.01,0.38,0.03,0.57C65.71,79.98,65.7,79.79,65.7,79.6z M65.8,78.5c0.01-0.05,0.01-0.11,0.02-0.16
			C65.81,78.4,65.81,78.45,65.8,78.5z M65.96,77.78c0-0.01,0-0.01,0-0.02C65.96,77.77,65.96,77.78,65.96,77.78z M72.42,82.27
			c-1.47,0-2.67-1.2-2.67-2.67s1.2-2.67,2.67-2.67s2.67,1.2,2.67,2.67S73.89,82.27,72.42,82.27z M79.12,80.22
			c0.02-0.2,0.03-0.41,0.03-0.62c0-0.21-0.01-0.41-0.03-0.61c0.02,0.2,0.03,0.41,0.03,0.61C79.15,79.81,79.14,80.01,79.12,80.22z
			 M79.03,78.36c0.03,0.17,0.06,0.34,0.08,0.51C79.09,78.7,79.06,78.53,79.03,78.36z M82.96,73.45c-0.85,1.47-2.37,2.57-4.46,3.28
			l0,0c-1.08-2.27-3.39-3.85-6.07-3.85c-2.86,0-5.3,1.8-6.27,4.32c-1.32-0.19-2.68-0.44-4.06-0.74c1.08-4.24,1.89-8.84,2.38-13.67
			c3.94-2.85,7.53-5.85,10.66-8.9c1,1.1,1.93,2.2,2.79,3.3C83.19,63.93,85.03,69.87,82.96,73.45z M78.98,78.14
			c-0.03-0.14-0.07-0.27-0.1-0.4C78.92,77.87,78.95,78.01,78.98,78.14z M78.78,77.42c-0.01-0.02-0.02-0.04-0.02-0.06
			C78.76,77.37,78.77,77.39,78.78,77.42z"/>
	</g>
</g>
</svg>
