<?xml version="1.0" encoding="utf-8"?>
<!-- Generator: Adobe Illustrator 25.2.1, SVG Export Plug-In . SVG Version: 6.00 Build 0)  -->
<svg version="1.1" id="Layer_1" xmlns="http://www.w3.org/2000/svg" xmlns:xlink="http://www.w3.org/1999/xlink" x="0px" y="0px"
	 viewBox="0 0 96.46 100" style="enable-background:new 0 0 96.46 100;" xml:space="preserve">
<style type="text/css">
	.st0{fill:#FFFFFF;}
</style>
<g>
	<path class="st0" d="M96.15,96.56L62.82,38.83V4.59h5.84c1.27,0,2.29-1.03,2.29-2.29S69.93,0,68.66,0H27.84
		c-1.27,0-2.29,1.03-2.29,2.29s1.03,2.29,2.29,2.29h5.79v34.24L18.59,64.9l0,0L0.31,96.56c-0.41,0.71-0.41,1.58,0,2.29
		C0.72,99.56,1.47,100,2.29,100h91.87c0.82,0,1.58-0.44,1.99-1.15C96.56,98.14,96.56,97.27,96.15,96.56z M37.92,40.59
		c0.2-0.35,0.31-0.74,0.31-1.15V4.59h20.01v34.86c0,0.4,0.11,0.8,0.31,1.15l11.61,20.11l-7.2-4.05c-0.7-0.39-1.55-0.39-2.25,0
		l-12.47,7.01l-12.47-7.02c-0.7-0.39-1.55-0.39-2.25,0l-7.21,4.05L37.92,40.59z M6.27,95.41l15.56-26.95
		c0.11-0.04,0.22-0.09,0.33-0.15l12.47-7.02l12.47,7.02c0.7,0.39,1.55,0.39,2.25,0l12.47-7.02l12.47,7.02
		c0.1,0.06,0.21,0.11,0.32,0.15l15.56,26.96H6.27z"/>
</g>
</svg>
