<?xml version="1.0" encoding="utf-8"?>
<!-- Generator: Adobe Illustrator 25.2.1, SVG Export Plug-In . SVG Version: 6.00 Build 0)  -->
<svg version="1.1" id="Layer_1" xmlns="http://www.w3.org/2000/svg" xmlns:xlink="http://www.w3.org/1999/xlink" x="0px" y="0px"
	 viewBox="0 0 96.5 100" style="enable-background:new 0 0 96.5 100;" xml:space="preserve">
<style type="text/css">
	.st0{fill:#EB2C32;}
</style>
<g>
	<path class="st0" d="M96.2,96.6L62.8,38.8V4.6h5.8c1.3,0,2.3-1,2.3-2.3S69.9,0,68.7,0H27.8c-1.3,0-2.3,1-2.3,2.3s1,2.3,2.3,2.3h5.8
		v34.2l-15,26.1l0,0L0.3,96.6c-0.4,0.7-0.4,1.6,0,2.3s1.2,1.2,2,1.2h91.9c0.8,0,1.6-0.4,2-1.2S96.6,97.3,96.2,96.6z M37.9,40.6
		c0.2-0.3,0.3-0.7,0.3-1.2V4.6h20v34.9c0,0.4,0.1,0.8,0.3,1.2l11.6,20.1l-7.2-4c-0.7-0.4-1.5-0.4-2.2,0l-12.5,7l-12.5-7
		c-0.7-0.4-1.5-0.4-2.2,0l-7.2,4L37.9,40.6z M6.3,95.4l15.6-26.9c0.1,0,0.2-0.1,0.3-0.2l12.5-7l12.5,7c0.7,0.4,1.5,0.4,2.2,0l12.5-7
		l12.5,7c0.1,0.1,0.2,0.1,0.3,0.2l15.6,27L6.3,95.4L6.3,95.4z"/>
</g>
</svg>
