<?xml version="1.0" encoding="utf-8"?>
<!-- Generator: Adobe Illustrator 25.2.1, SVG Export Plug-In . SVG Version: 6.00 Build 0)  -->
<svg version="1.1" id="Layer_1" xmlns="http://www.w3.org/2000/svg" xmlns:xlink="http://www.w3.org/1999/xlink" x="0px" y="0px"
	 viewBox="0 0 78.83 100" style="enable-background:new 0 0 78.83 100;" xml:space="preserve">
<style type="text/css">
	.st0{fill:#FFFFFF;}
</style>
<g>
	<g>
		<path class="st0" d="M76.64,0H2.19C0.98,0,0,0.98,0,2.19v21.17v37.23v37.23C0,99.02,0.98,100,2.19,100h37.23h37.23
			c1.21,0,2.19-0.98,2.19-2.19V60.59V23.36V2.19C78.83,0.98,77.85,0,76.64,0z M4.37,25.55h32.85V58.4H4.37V25.55z M41.6,25.55h32.85
			V58.4H41.6V25.55z M4.37,4.37h70.08v16.8H39.41H4.37V4.37z M4.37,62.77h32.85v32.85H4.37V62.77z M74.45,95.63H41.6V62.77h32.85
			V95.63z"/>
	</g>
	<g>
		<path class="st0" d="M29.77,39.79h-5.86v-5.86c0-1.21-0.98-2.19-2.19-2.19c-1.21,0-2.19,0.98-2.19,2.19v5.86h-5.86
			c-1.21,0-2.19,0.98-2.19,2.19c0,1.21,0.98,2.19,2.19,2.19h5.86v5.86c0,1.21,0.98,2.19,2.19,2.19c1.21,0,2.19-0.98,2.19-2.19v-5.86
			h5.86c1.21,0,2.19-0.98,2.19-2.19C31.96,40.76,30.98,39.79,29.77,39.79z"/>
	</g>
	<g>
		<path class="st0" d="M29.77,79.43H13.68c-1.21,0-2.19,0.98-2.19,2.19s0.98,2.19,2.19,2.19h16.09c1.21,0,2.19-0.98,2.19-2.19
			S30.98,79.43,29.77,79.43z"/>
	</g>
	<g>
		<path class="st0" d="M58.68,76.24h0.15c1.21,0,2.19-0.98,2.19-2.19c0-1.21-0.98-2.19-2.19-2.19h-0.15c-1.21,0-2.19,0.98-2.19,2.19
			C56.49,75.26,57.47,76.24,58.68,76.24z"/>
	</g>
	<g>
		<path class="st0" d="M58.68,87h0.15c1.21,0,2.19-0.98,2.19-2.19c0-1.21-0.98-2.19-2.19-2.19h-0.15c-1.21,0-2.19,0.98-2.19,2.19
			C56.49,86.02,57.47,87,58.68,87z"/>
	</g>
	<g>
		<path class="st0" d="M65.26,34.74c-0.85-0.85-2.24-0.85-3.09,0l-4.14,4.14l-4.14-4.14c-0.85-0.85-2.24-0.85-3.09,0
			c-0.85,0.85-0.85,2.24,0,3.09l4.14,4.14l-4.14,4.14c-0.85,0.85-0.85,2.24,0,3.09c0.43,0.43,0.99,0.64,1.55,0.64
			c0.56,0,1.12-0.21,1.55-0.64l4.14-4.14l4.14,4.14c0.43,0.43,0.99,0.64,1.55,0.64c0.56,0,1.12-0.21,1.55-0.64
			c0.85-0.85,0.85-2.24,0-3.09l-4.14-4.14l4.14-4.14C66.12,36.98,66.12,35.59,65.26,34.74z"/>
	</g>
</g>
</svg>
