<?xml version="1.0" encoding="utf-8"?>
<!-- Generator: Adobe Illustrator 25.2.1, SVG Export Plug-In . SVG Version: 6.00 Build 0)  -->
<svg version="1.1" id="Layer_1" xmlns="http://www.w3.org/2000/svg" xmlns:xlink="http://www.w3.org/1999/xlink" x="0px" y="0px"
	 viewBox="0 0 78.8 100" style="enable-background:new 0 0 78.8 100;" xml:space="preserve">
<style type="text/css">
	.st0{fill:#EB2C32;}
</style>
<g>
	<g>
		<path class="st0" d="M76.6,0H2.2C1,0,0,1,0,2.2v21.2v37.2v37.2C0,99,1,100,2.2,100h37.2h37.2c1.2,0,2.2-1,2.2-2.2V60.6V23.4V2.2
			C78.8,1,77.8,0,76.6,0z M4.4,25.5h32.8v32.9H4.4V25.5z M41.6,25.5h32.8v32.9H41.6V25.5z M4.4,4.4h70.1v16.8h-35h-35V4.4z
			 M4.4,62.8h32.8v32.8H4.4V62.8z M74.4,95.6H41.6V62.8h32.8V95.6z"/>
	</g>
	<g>
		<path class="st0" d="M29.8,39.8h-5.9v-5.9c0-1.2-1-2.2-2.2-2.2s-2.2,1-2.2,2.2v5.9h-5.9c-1.2,0-2.2,1-2.2,2.2s1,2.2,2.2,2.2h5.9
			V50c0,1.2,1,2.2,2.2,2.2s2.2-1,2.2-2.2v-5.9h5.9c1.2,0,2.2-1,2.2-2.2C32,40.8,31,39.8,29.8,39.8z"/>
	</g>
	<g>
		<path class="st0" d="M29.8,79.4H13.7c-1.2,0-2.2,1-2.2,2.2s1,2.2,2.2,2.2h16.1c1.2,0,2.2-1,2.2-2.2S31,79.4,29.8,79.4z"/>
	</g>
	<g>
		<path class="st0" d="M58.7,76.2h0.2c1.2,0,2.2-1,2.2-2.2s-1-2.2-2.2-2.2h-0.2c-1.2,0-2.2,1-2.2,2.2C56.5,75.3,57.5,76.2,58.7,76.2
			z"/>
	</g>
	<g>
		<path class="st0" d="M58.7,87h0.2c1.2,0,2.2-1,2.2-2.2s-1-2.2-2.2-2.2h-0.2c-1.2,0-2.2,1-2.2,2.2S57.5,87,58.7,87z"/>
	</g>
	<g>
		<path class="st0" d="M65.3,34.7c-0.8-0.8-2.2-0.8-3.1,0L58,38.9l-4.1-4.1c-0.8-0.8-2.2-0.8-3.1,0s-0.8,2.2,0,3.1l4.1,4.1l-4.1,4.1
			c-0.8,0.8-0.8,2.2,0,3.1c0.4,0.4,1,0.6,1.5,0.6c0.6,0,1.1-0.2,1.5-0.6l4.1-4.1l4.1,4.1c0.4,0.4,1,0.6,1.5,0.6
			c0.6,0,1.1-0.2,1.5-0.6c0.8-0.8,0.8-2.2,0-3.1L61.1,42l4.1-4.1C66.1,37,66.1,35.6,65.3,34.7z"/>
	</g>
</g>
</svg>
