<?xml version="1.0" encoding="utf-8"?>
<!-- Generator: Adobe Illustrator 25.2.1, SVG Export Plug-In . SVG Version: 6.00 Build 0)  -->
<svg version="1.1" id="Layer_1" xmlns="http://www.w3.org/2000/svg" xmlns:xlink="http://www.w3.org/1999/xlink" x="0px" y="0px"
	 viewBox="0 0 100 100" style="enable-background:new 0 0 100 100;" xml:space="preserve">
<style type="text/css">
	.st0{fill:#EB2C32;}
</style>
<g>
	<path class="st0" d="M99.4,27c-0.7-0.7-1.9-0.8-2.7-0.2L73.2,3.2c0.6-0.8,0.6-1.9-0.2-2.7c-0.8-0.8-2.1-0.8-2.9,0
		c-0.3,0.3-0.6,0.6-0.9,1c-0.1,0.1-0.2,0.2-0.3,0.3c-0.2,0.2-0.4,0.5-0.5,0.8c-3.2,4.3-4.3,9.9-4.5,15.1c0,0,0,0,0,0.1
		c-0.2,4.9,0.4,9.4,0.9,12.2c-2.2-0.4-5.4-0.8-9-0.9c-9.1-0.2-16,1.9-20.4,6.3s-6.5,11.2-6.3,20.4c0.1,3.6,0.5,6.8,0.9,9
		c-6.1-1.1-19.9-2.6-28.1,4.2c-0.2,0.1-0.3,0.2-0.5,0.3c-0.1,0.1-0.1,0.1-0.2,0.2c-0.2,0.2-0.4,0.4-0.6,0.6c-0.8,0.8-0.8,2.1,0,2.9
		c0.6,0.6,1.4,0.7,2.1,0.5l23.9,23.8c-0.2,0.7-0.1,1.5,0.5,2.1c0.4,0.4,0.9,0.6,1.4,0.6s1-0.2,1.4-0.6c8.1-8.1,6.5-22.9,5.4-29.4
		c2.2,0.4,5.4,0.8,9,0.9c0.4,0,0.9,0,1.3,0c8.5,0,14.9-2.1,19.1-6.3c4.4-4.4,6.5-11.2,6.3-20.4c-0.1-3.6-0.5-6.8-0.9-9
		c2.5,0.4,6.2,0.9,10.2,0.9c6.6,0,14.2-1.3,19.2-6.3C100.2,29.1,100.2,27.8,99.4,27z M83,32L68,17c0.2-3.5,1-7.3,2.7-10.4l22.8,22.8
		C90.4,31,86.7,31.8,83,32z M68,22.7l9.3,9.3c-3.6-0.2-6.6-0.8-8.2-1.1C68.7,29.3,68.2,26.3,68,22.7z M65.7,34.3
		c0.4,1.8,1.1,5.7,1.2,10c0,0.2,0,0.5,0,0.7l-12-12C59.6,33.2,63.7,33.9,65.7,34.3z M50.5,66.6l-17-17c0,0-0.1-0.1-0.2-0.1
		c0.5-3.4,1.5-6.9,3.5-9.7l23.3,23.3C57.5,65.1,54.1,66.1,50.5,66.6z M29,94L6,71c2.8-1.8,6.3-2.6,9.8-2.9l16.2,16.2
		C31.6,87.6,30.8,91.1,29,94z M21.4,67.9c4.2,0.2,7.8,0.8,9.6,1.2c0.4,1.8,1,5.4,1.2,9.6L21.4,67.9z M34.3,65.7
		c-0.4-1.8-1.1-5.7-1.2-10c0-0.2,0-0.5,0-0.7l12,12C40.4,66.8,36.3,66.1,34.3,65.7z M63.1,60.2L39.8,36.9c2.7-2,6.2-3,9.7-3.5
		c0,0.1,0.1,0.1,0.1,0.2l17,16.9C66.1,54,65.1,57.5,63.1,60.2z"/>
</g>
</svg>
