<?xml version="1.0" encoding="utf-8"?>
<!-- Generator: Adobe Illustrator 25.2.1, SVG Export Plug-In . SVG Version: 6.00 Build 0)  -->
<svg version="1.1" id="Layer_1" xmlns="http://www.w3.org/2000/svg" xmlns:xlink="http://www.w3.org/1999/xlink" x="0px" y="0px"
	 viewBox="0 0 100 100" style="enable-background:new 0 0 100 100;" xml:space="preserve">
<style type="text/css">
	.st0{fill:#FFFFFF;}
</style>
<g>
	<path class="st0" d="M99.4,27.02c-0.73-0.73-1.86-0.78-2.66-0.18L73.16,3.25c0.6-0.8,0.55-1.93-0.18-2.66
		c-0.79-0.79-2.08-0.79-2.88,0c-0.31,0.31-0.61,0.63-0.89,0.96c-0.12,0.08-0.24,0.17-0.35,0.28c-0.22,0.22-0.37,0.48-0.47,0.76
		c-3.16,4.31-4.32,9.89-4.54,15.1c0,0.02,0,0.04,0,0.06c-0.2,4.85,0.39,9.37,0.9,12.24c-2.22-0.39-5.43-0.84-9.02-0.92
		c-9.13-0.22-15.99,1.89-20.38,6.28c-4.39,4.39-6.5,11.25-6.28,20.38c0.09,3.59,0.53,6.8,0.92,9.02c-6.15-1.1-19.86-2.56-28.14,4.22
		c-0.16,0.09-0.32,0.2-0.46,0.33c-0.06,0.06-0.11,0.13-0.16,0.2c-0.22,0.2-0.43,0.4-0.64,0.6c-0.79,0.79-0.79,2.08,0,2.88
		c0.57,0.57,1.38,0.72,2.09,0.48l23.85,23.85c-0.24,0.71-0.08,1.52,0.48,2.09c0.4,0.4,0.92,0.6,1.44,0.6c0.52,0,1.04-0.2,1.44-0.6
		c8.07-8.07,6.52-22.92,5.36-29.4c2.22,0.39,5.43,0.84,9.02,0.92c0.44,0.01,0.87,0.02,1.3,0.02c8.49,0,14.9-2.11,19.08-6.29
		c4.39-4.39,6.5-11.25,6.28-20.38c-0.09-3.59-0.53-6.8-0.92-9.02c2.47,0.44,6.17,0.94,10.24,0.94c6.59,0,14.17-1.31,19.16-6.3
		C100.2,29.1,100.2,27.81,99.4,27.02z M83.04,32.03L67.97,16.96c0.23-3.5,0.97-7.29,2.72-10.42l22.78,22.78
		C90.4,31.04,86.68,31.8,83.04,32.03z M67.97,22.72l9.3,9.3c-3.58-0.22-6.61-0.77-8.2-1.1C68.74,29.33,68.19,26.3,67.97,22.72z
		 M65.68,34.32c0.39,1.85,1.07,5.67,1.18,10.04c0.01,0.24,0.01,0.49,0.01,0.73L54.9,33.13C59.57,33.18,63.72,33.91,65.68,34.32z
		 M50.55,66.57L33.6,49.62c-0.05-0.05-0.11-0.09-0.16-0.13c0.45-3.43,1.45-6.94,3.47-9.7L60.22,63.1
		C57.5,65.09,54.06,66.12,50.55,66.57z M28.98,94.01l-23-23c2.83-1.75,6.3-2.61,9.76-2.95l16.18,16.18
		C31.59,87.61,30.76,91.13,28.98,94.01z M21.35,67.91c4.17,0.15,7.79,0.79,9.58,1.17c0.38,1.79,1.02,5.4,1.17,9.58L21.35,67.91z
		 M34.32,65.68c-0.39-1.85-1.07-5.67-1.18-10.04c-0.01-0.24-0.01-0.49-0.01-0.73L45.1,66.87C40.43,66.82,36.28,66.09,34.32,65.68z
		 M63.1,60.22L39.78,36.9c2.73-2,6.18-3.02,9.7-3.48c0.05,0.06,0.09,0.12,0.14,0.17l16.95,16.94C66.11,53.96,65.11,57.46,63.1,60.22
		z"/>
</g>
</svg>
