<?xml version="1.0" encoding="utf-8"?>
<!-- Generator: Adobe Illustrator 25.2.1, SVG Export Plug-In . SVG Version: 6.00 Build 0)  -->
<svg version="1.1" id="Layer_1" xmlns="http://www.w3.org/2000/svg" xmlns:xlink="http://www.w3.org/1999/xlink" x="0px" y="0px"
	 viewBox="0 0 100 88.71" style="enable-background:new 0 0 100 88.71;" xml:space="preserve">
<style type="text/css">
	.st0{fill:#FFFFFF;}
</style>
<g>
	<g>
		<path class="st0" d="M27,72.97c-7.75-2.7-12.95-10.03-12.95-18.24c0-2.05,0.83-6.03,4.81-13.35c0.52-0.97,0.17-2.18-0.8-2.7
			c-0.97-0.52-2.18-0.17-2.7,0.8c-3.56,6.56-5.29,11.55-5.29,15.25c0,9.9,6.28,18.74,15.62,22c0.22,0.08,0.44,0.11,0.66,0.11
			c0.82,0,1.59-0.51,1.88-1.34C28.58,74.47,28.04,73.33,27,72.97z"/>
	</g>
	<g>
		<path class="st0" d="M69.29,0.75C68.91,0.27,68.34,0,67.74,0c-0.6,0-1.18,0.27-1.55,0.75c-0.09,0.11-8.34,10.43-16.18,22.54
			C42.37,11.46,34.45,1.54,33.82,0.75C33.44,0.27,32.87,0,32.26,0c-0.6,0-1.18,0.27-1.55,0.75C29.45,2.31,0,39.22,0,56.44
			c0,17.79,14.47,32.26,32.26,32.26c6.54,0,12.64-1.96,17.73-5.32c5.27,3.48,11.38,5.32,17.75,5.32c17.79,0,32.26-14.47,32.26-32.26
			C100,39.22,70.55,2.31,69.29,0.75z M3.98,56.44c0-13.71,22.15-43.29,28.28-51.22c2.99,3.87,9.81,12.91,15.99,22.73
			c0.02,0.03,0.03,0.07,0.06,0.11c7.49,11.95,11.67,21.31,12.18,27.23c0,0.04,0,0.07,0.01,0.11c0.01,0.15,0.02,0.31,0.03,0.46
			c0.01,0.2,0.01,0.4,0.01,0.59c0,0.43-0.01,0.86-0.03,1.28c0,0.09-0.01,0.19-0.01,0.28c-0.02,0.38-0.05,0.75-0.09,1.12
			c-0.02,0.16-0.03,0.32-0.05,0.48c-0.03,0.24-0.06,0.48-0.09,0.71c-0.05,0.32-0.1,0.65-0.15,0.97c-0.02,0.1-0.03,0.2-0.05,0.3
			c-0.6,3.23-1.76,6.32-3.4,9.13c-0.01,0.02-0.02,0.03-0.03,0.05c-0.12,0.21-0.25,0.42-0.38,0.62c-0.12,0.2-0.25,0.39-0.37,0.58
			c-0.11,0.17-0.22,0.33-0.34,0.5c-0.18,0.26-0.36,0.52-0.55,0.77c-0.04,0.05-0.08,0.11-0.12,0.16
			c-5.16,6.87-13.38,11.32-22.62,11.32C16.67,84.72,3.98,72.04,3.98,56.44z M67.74,84.72c-5.1,0-10.01-1.34-14.35-3.9
			c1.8-1.56,3.4-3.31,4.8-5.2c3.8-5.12,6.12-11.41,6.32-18.22c0-0.03,0-0.06,0-0.09c0.01-0.29,0.01-0.58,0.01-0.87
			c0-0.24-0.01-0.5-0.02-0.75c0-0.06-0.01-0.13-0.01-0.19c-0.01-0.21-0.03-0.43-0.05-0.65c0-0.04-0.01-0.08-0.01-0.12
			c-0.57-5.8-3.9-13.91-9.94-24.16c-0.7-1.19-1.42-2.38-2.14-3.56c6-9.45,12.48-18.04,15.38-21.79
			c6.13,7.93,28.28,37.51,28.28,51.22C96.02,72.04,83.33,84.72,67.74,84.72z"/>
	</g>
</g>
</svg>
