<?xml version="1.0" encoding="utf-8"?>
<!-- Generator: Adobe Illustrator 25.2.1, SVG Export Plug-In . SVG Version: 6.00 Build 0)  -->
<svg version="1.1" id="Layer_1" xmlns="http://www.w3.org/2000/svg" xmlns:xlink="http://www.w3.org/1999/xlink" x="0px" y="0px"
	 viewBox="0 0 100 88.7" style="enable-background:new 0 0 100 88.7;" xml:space="preserve">
<style type="text/css">
	.st0{fill:#EB2C32;}
</style>
<g>
	<g>
		<path class="st0" d="M27,73c-7.8-2.7-12.9-10-12.9-18.2c0-2,0.8-6,4.8-13.3c0.5-1,0.2-2.2-0.8-2.7s-2.2-0.2-2.7,0.8
			C11.8,46,10.1,51,10.1,54.7c0,9.9,6.3,18.7,15.6,22c0.2,0.1,0.4,0.1,0.7,0.1c0.8,0,1.6-0.5,1.9-1.3C28.6,74.5,28,73.3,27,73z"/>
	</g>
	<g>
		<path class="st0" d="M69.3,0.7c-0.4-0.5-1-0.8-1.6-0.8s-1.2,0.3-1.6,0.8C66.1,0.9,57.8,11.2,50,23.3C42.4,11.5,34.5,1.5,33.8,0.7
			c-0.4-0.5-1-0.8-1.6-0.8c-0.6,0-1.2,0.3-1.5,0.8C29.5,2.3,0,39.2,0,56.4c0,17.8,14.5,32.3,32.3,32.3c6.5,0,12.6-2,17.7-5.3
			c5.3,3.5,11.4,5.3,17.8,5.3c17.8,0,32.3-14.5,32.3-32.3C100,39.2,70.6,2.3,69.3,0.7z M4,56.4C4,42.7,26.1,13.1,32.3,5.2
			c3,3.9,9.8,12.9,16,22.7c0,0,0,0.1,0.1,0.1C55.8,40,60,49.4,60.5,55.3c0,0,0,0.1,0,0.1c0,0.2,0,0.3,0,0.5c0,0.2,0,0.4,0,0.6
			c0,0.4,0,0.9,0,1.3c0,0.1,0,0.2,0,0.3c0,0.4,0,0.8-0.1,1.1c0,0.2,0,0.3,0,0.5c0,0.2-0.1,0.5-0.1,0.7c0,0.3-0.1,0.7-0.2,1
			c0,0.1,0,0.2,0,0.3c-0.6,3.2-1.8,6.3-3.4,9.1c0,0,0,0,0,0.1c-0.1,0.2-0.2,0.4-0.4,0.6c-0.1,0.2-0.2,0.4-0.4,0.6
			c-0.1,0.2-0.2,0.3-0.3,0.5c-0.2,0.3-0.4,0.5-0.5,0.8c0,0.1-0.1,0.1-0.1,0.2c-5.2,6.9-13.4,11.3-22.6,11.3C16.7,84.7,4,72,4,56.4z
			 M67.7,84.7c-5.1,0-10-1.3-14.3-3.9c1.8-1.6,3.4-3.3,4.8-5.2c3.8-5.1,6.1-11.4,6.3-18.2c0,0,0-0.1,0-0.1c0-0.3,0-0.6,0-0.9
			c0-0.2,0-0.5,0-0.8c0-0.1,0-0.1,0-0.2c0-0.2,0-0.4-0.1-0.7c0,0,0-0.1,0-0.1c-0.6-5.8-3.9-13.9-9.9-24.2c-0.7-1.2-1.4-2.4-2.1-3.6
			c6-9.4,12.5-18,15.4-21.8C73.9,13.1,96,42.7,96,56.4C96,72,83.3,84.7,67.7,84.7z"/>
	</g>
</g>
</svg>
