<?xml version="1.0" encoding="utf-8"?>
<!-- Generator: Adobe Illustrator 25.2.1, SVG Export Plug-In . SVG Version: 6.00 Build 0)  -->
<svg version="1.1" id="Layer_1" xmlns="http://www.w3.org/2000/svg" xmlns:xlink="http://www.w3.org/1999/xlink" x="0px" y="0px"
	 viewBox="0 0 70.4 100" style="enable-background:new 0 0 70.4 100;" xml:space="preserve">
<style type="text/css">
	.st0{fill:#EB2C32;}
</style>
<g>
	<path class="st0" d="M70.4,32.5c0-9.8-3.6-19.1-10.1-26.4L63,3.4c0.8-0.8,0.8-2,0-2.8s-2-0.8-2.8,0l-4.1,4.1c0,0,0,0,0,0l-5.4,5.4
		c-2.3-2.1-5-3.7-7.8-4.9c0,0,0,0-0.1,0c-0.3-0.1-0.7-0.3-1-0.4c-0.1,0-0.2-0.1-0.3-0.1c-0.3-0.1-0.6-0.2-0.9-0.3
		c-0.2-0.1-0.3-0.1-0.5-0.2C39.9,4.1,39.7,4,39.4,4c-4.9-1.4-10-1.5-14.9-0.5c-0.1,0-0.2,0-0.3,0.1c-0.4,0.1-0.7,0.2-1,0.3
		c-0.1,0-0.2,0-0.3,0.1C22.8,4,22.6,4,22.4,4.1c-0.1,0-0.2,0.1-0.2,0.1c-0.4,0.1-0.7,0.2-1.1,0.4c0,0-0.1,0-0.1,0.1
		c-3.9,1.5-7.6,3.8-10.7,6.9C7,14.6,4.7,18.3,3.3,22.2c0,0.1,0,0.1-0.1,0.2c-0.1,0.3-0.2,0.7-0.3,1c0,0.1-0.1,0.2-0.1,0.3
		c-0.1,0.2-0.1,0.4-0.2,0.6c0,0.1-0.1,0.2-0.1,0.4c-0.1,0.3-0.2,0.6-0.2,0.9c0,0.1,0,0.2-0.1,0.3c-0.1,0.4-0.2,0.8-0.3,1.2
		c0,0,0,0,0,0c-1.2,6.8-0.1,14,3.6,20.3c0,0.1,0.1,0.1,0.1,0.2c0.9,1.5,1.9,2.9,3.1,4.3l-8.2,8.2c-0.8,0.8-0.8,2,0,2.8s2,0.8,2.8,0
		l1.4-1.4c6.8,6.1,15.3,9.6,24.4,10.1v16.1H10.3c-1.1,0-2,0.9-2,2V98c0,1.1,0.9,2,2,2H52c1.1,0,2-0.9,2-2v-8.1c0-1.1-0.9-2-2-2H33.1
		V71.7C53.9,70.7,70.4,53.5,70.4,32.5z M50,96H12.3v-4.1H50L50,96L50,96z M7,23.6c1.1-2.9,2.6-5.6,4.6-7.9l6.9,6.9
		c-2.1,2.4-3.7,5-4.9,7.8c-2.6-0.8-5.3-1.3-8-1.4C5.9,27.3,6.3,25.4,7,23.6L7,23.6z M55.3,41.3c-1.1,2.9-2.7,5.6-4.6,7.9l-7-7
		c2.3-2.7,4.1-5.7,5.4-8.9c2.5,0.8,5,1.3,7.7,1.5C56.5,37,56,39.2,55.3,41.3L55.3,41.3z M5.6,35.7c0-0.1,0-0.1,0-0.2
		c0-0.3-0.1-0.6-0.1-1c0-0.1,0-0.2,0-0.4c0-0.3,0-0.5,0-0.8c0-0.1,0-0.2,0-0.2c2.3,0.1,4.7,0.5,6.9,1.1c-1.1,3.9-1.4,8-0.8,12.1
		c-0.9-0.4-1.9-0.8-2.8-1.3c-0.1-0.1-0.1-0.2-0.2-0.3C7.1,42,6.1,38.9,5.6,35.7z M33,6.9c0.3,0,0.6,0.1,0.9,0.1
		C34.1,7,34.3,7,34.5,7c0.2,0,0.4,0.1,0.6,0.1c3.1,0.5,6,1.5,8.7,3c0.5,0.9,1,1.8,1.3,2.8c-3.7-0.5-7.4-0.3-11,0.5
		c-0.7-2.1-1.1-4.3-1.3-6.5C32.9,6.8,33,6.8,33,6.9z M56.6,29.2c0,0.2,0,0.3,0.1,0.5c0,0.3,0.1,0.6,0.1,0.9c0,0.1,0,0.1,0,0.2
		c-2.2-0.1-4.4-0.6-6.5-1.3c0.8-3.6,1-7.3,0.5-11c0.9,0.4,1.9,0.8,2.8,1.3c1.5,2.6,2.5,5.5,3,8.7C56.5,28.7,56.6,29,56.6,29.2z
		 M30.2,58.1c-0.3,0-0.5,0-0.8,0c-0.1,0-0.2,0-0.4,0c-0.3,0-0.6-0.1-1-0.1c-0.1,0-0.1,0-0.2,0c-3.2-0.4-6.3-1.4-9.1-2.9
		c-0.1-0.1-0.2-0.1-0.3-0.2c-0.5-0.9-1-1.8-1.3-2.8c1.4,0.2,2.8,0.3,4.2,0.3c2.7,0,5.4-0.4,8-1.1c0.7,2.2,1.1,4.5,1.1,6.9
		C30.3,58.1,30.3,58.1,30.2,58.1z M17.1,48l6.5-6.5c1.7,1.8,3.1,3.9,4.1,6.1C24.3,48.5,20.7,48.6,17.1,48z M26.5,38.7l4-4l7.5,7.5
		c-2,1.7-4.2,3-6.5,4C30.3,43.5,28.6,40.9,26.5,38.7z M33.3,31.8l5-4.9c2.1,2,4.5,3.6,7.1,4.9c-1,2.7-2.5,5.3-4.5,7.6L33.3,31.8z
		 M38.4,21.2c-1-1.3-1.9-2.6-2.7-4.1c2.4-0.5,4.8-0.6,7.2-0.5L38.4,21.2z M35.5,24l-5,5l-6.3-6.3c2.3-2,4.9-3.5,7.6-4.5
		C32.8,20.3,34,22.2,35.5,24z M41.1,24.1l5.6-5.6c0.5,3.1,0.5,6.3-0.2,9.4C44.6,26.9,42.7,25.6,41.1,24.1z M30.3,14.5
		c-3.2,1.2-6.2,3-8.9,5.4L14.4,13c3.9-3.4,8.9-5.6,14.4-6.1C29,9.5,29.5,12.1,30.3,14.5z M27.7,31.8l-4.1,4.1
		c-1.9-1.6-4-2.9-6.2-3.9c1-2.3,2.4-4.5,4-6.5L27.7,31.8z M20.7,38.8l-5.4,5.5c-0.2-2.8,0-5.7,0.8-8.4
		C17.7,36.6,19.3,37.6,20.7,38.8z M33,50c2.8-1.2,5.5-2.8,7.8-4.9l7,7c-3.7,3.2-8.3,5.3-13.4,6C34.3,55.2,33.8,52.5,33,50z
		 M11.6,54.8c0.7,0.7,1.5,1.2,2.3,1.8c0.1,0.1,0.2,0.1,0.2,0.2c0.3,0.2,0.5,0.4,0.8,0.5c0.3,0.2,0.6,0.4,0.8,0.5c0,0,0.1,0,0.1,0.1
		c0.1,0,0.1,0.1,0.2,0.1c4.7,2.8,9.9,4.1,15.1,4.1c0.8,0,1.5,0,2.3-0.1c0,0,0,0,0,0c0.4,0,0.8-0.1,1.3-0.1c0.1,0,0.2,0,0.3,0
		c0.3,0,0.5-0.1,0.8-0.1c0.2,0,0.5-0.1,0.7-0.1c0.2,0,0.4-0.1,0.6-0.1c0.3-0.1,0.6-0.1,0.9-0.2c0.2,0,0.3-0.1,0.5-0.1
		c0.3-0.1,0.6-0.2,0.9-0.2c0.2,0,0.3-0.1,0.5-0.2c0.3-0.1,0.6-0.2,0.9-0.3c0.2-0.1,0.4-0.1,0.5-0.2c0.3-0.1,0.5-0.2,0.8-0.3
		c0.2-0.1,0.4-0.2,0.6-0.2c0.1,0,0.2-0.1,0.3-0.1c3.3-1.5,6.5-3.5,9.2-6.2c3.1-3.1,5.4-6.8,6.9-10.7c0-0.1,0-0.1,0.1-0.2
		c0.1-0.3,0.2-0.7,0.3-1c0-0.1,0.1-0.2,0.1-0.3c0.1-0.2,0.1-0.4,0.2-0.6c0-0.1,0.1-0.2,0.1-0.4c0.1-0.3,0.2-0.6,0.2-0.9
		c0-0.1,0-0.2,0.1-0.3c0.1-0.4,0.2-0.8,0.3-1.2c0,0,0,0,0,0c0.8-4.5,0.6-9.1-0.7-13.6c0-0.2-0.1-0.3-0.2-0.5
		c-0.1-0.2-0.2-0.5-0.2-0.7c-0.1-0.3-0.2-0.5-0.3-0.8c0-0.1-0.1-0.3-0.2-0.4c-0.1-0.3-0.2-0.6-0.4-0.9c0-0.1-0.1-0.1-0.1-0.2
		c-1.2-2.8-2.8-5.3-4.9-7.7l4-4c5.8,6.5,9,14.8,9,23.5c0,19.5-15.8,35.3-35.3,35.3c-8.8,0-17-3.2-23.5-9L11.6,54.8z"/>
</g>
</svg>
