<?xml version="1.0" encoding="utf-8"?>
<!-- Generator: Adobe Illustrator 25.2.1, SVG Export Plug-In . SVG Version: 6.00 Build 0)  -->
<svg version="1.1" id="Layer_1" xmlns="http://www.w3.org/2000/svg" xmlns:xlink="http://www.w3.org/1999/xlink" x="0px" y="0px"
	 viewBox="0 0 70.45 100" style="enable-background:new 0 0 70.45 100;" xml:space="preserve">
<style type="text/css">
	.st0{fill:#FFFFFF;}
</style>
<g>
	<path class="st0" d="M70.45,32.47c0-9.84-3.59-19.12-10.14-26.36l2.71-2.71c0.78-0.78,0.78-2.04,0-2.82
		c-0.78-0.78-2.04-0.78-2.82,0l-4.08,4.08c-0.01,0.01-0.01,0.01-0.02,0.02l-5.44,5.44c-2.34-2.06-4.96-3.7-7.76-4.91
		c-0.02-0.01-0.05-0.02-0.07-0.03c-0.34-0.14-0.67-0.28-1.02-0.41c-0.09-0.03-0.17-0.07-0.26-0.1c-0.3-0.11-0.6-0.22-0.9-0.32
		c-0.17-0.06-0.34-0.11-0.52-0.17c-0.23-0.07-0.46-0.15-0.69-0.22c-4.88-1.42-10-1.55-14.87-0.45c-0.1,0.02-0.19,0.04-0.29,0.07
		c-0.35,0.08-0.69,0.17-1.04,0.27c-0.09,0.02-0.18,0.05-0.27,0.07c-0.2,0.06-0.41,0.12-0.61,0.18c-0.08,0.03-0.16,0.05-0.24,0.08
		c-0.37,0.12-0.74,0.24-1.1,0.38c-0.05,0.02-0.1,0.04-0.15,0.06c-3.94,1.45-7.61,3.75-10.73,6.87c-3.11,3.11-5.41,6.78-6.86,10.71
		c-0.02,0.07-0.05,0.13-0.07,0.2c-0.12,0.34-0.24,0.68-0.35,1.03c-0.03,0.1-0.07,0.2-0.1,0.31c-0.06,0.19-0.12,0.38-0.17,0.58
		c-0.04,0.13-0.07,0.25-0.1,0.38c-0.08,0.31-0.16,0.61-0.23,0.92c-0.03,0.11-0.05,0.22-0.08,0.34c-0.09,0.42-0.18,0.83-0.26,1.25
		c0,0.01,0,0.02-0.01,0.03c-1.23,6.82-0.07,14.04,3.65,20.33c0.04,0.07,0.08,0.13,0.13,0.19c0.9,1.5,1.93,2.93,3.09,4.26l-8.19,8.19
		c-0.78,0.78-0.78,2.04,0,2.82c0.78,0.78,2.04,0.78,2.82,0l1.36-1.36c6.75,6.11,15.27,9.64,24.37,10.09V87.9H10.29
		c-1.1,0-1.99,0.89-1.99,1.99v8.11c0,1.1,0.89,1.99,1.99,1.99h41.67c1.1,0,1.99-0.89,1.99-1.99v-8.11c0-1.1-0.89-1.99-1.99-1.99
		H33.12V71.75C53.88,70.71,70.45,53.49,70.45,32.47z M49.96,96.01H12.29v-4.12h37.68V96.01z M6.99,23.65
		c1.07-2.9,2.65-5.56,4.62-7.86l6.95,6.95c-2.08,2.38-3.73,5.02-4.94,7.83c-2.57-0.81-5.26-1.27-7.99-1.36
		C5.89,27.28,6.34,25.42,6.99,23.65C6.99,23.65,6.99,23.65,6.99,23.65z M55.26,41.3c-1.07,2.9-2.65,5.56-4.62,7.86l-6.95-6.95
		c2.34-2.68,4.14-5.7,5.37-8.9c2.45,0.81,5.02,1.31,7.65,1.46C56.51,37.04,56.02,39.23,55.26,41.3C55.26,41.3,55.26,41.3,55.26,41.3
		z M5.64,35.73c-0.01-0.06-0.02-0.12-0.02-0.19c-0.04-0.31-0.07-0.63-0.09-0.95c-0.01-0.12-0.02-0.25-0.03-0.37
		c-0.02-0.27-0.03-0.54-0.04-0.81c0-0.07,0-0.15-0.01-0.23c2.34,0.07,4.65,0.46,6.86,1.14c-1.09,3.93-1.36,8.05-0.79,12.11
		c-0.94-0.39-1.86-0.83-2.76-1.34c-0.06-0.11-0.13-0.21-0.18-0.32C7.05,41.98,6.05,38.9,5.64,35.73z M33.04,6.86
		c0.3,0.02,0.59,0.05,0.88,0.08c0.18,0.02,0.37,0.05,0.55,0.07c0.2,0.03,0.41,0.05,0.61,0.08c3.11,0.48,6.03,1.53,8.66,3.02
		c0.51,0.9,0.95,1.82,1.34,2.76c-3.67-0.52-7.4-0.34-10.99,0.5c-0.7-2.09-1.14-4.28-1.28-6.53C32.89,6.84,32.97,6.85,33.04,6.86z
		 M56.6,29.19c0.02,0.16,0.04,0.32,0.06,0.47c0.03,0.31,0.06,0.62,0.08,0.92c0,0.06,0.01,0.13,0.01,0.19
		c-2.25-0.14-4.44-0.58-6.53-1.28c0.85-3.59,1.02-7.32,0.5-10.99c0.94,0.39,1.86,0.83,2.76,1.34c1.49,2.63,2.54,5.55,3.02,8.66
		C56.55,28.73,56.58,28.96,56.6,29.19z M30.19,58.15c-0.28-0.01-0.55-0.02-0.83-0.04c-0.12-0.01-0.23-0.02-0.35-0.03
		c-0.32-0.03-0.65-0.06-0.97-0.1c-0.06-0.01-0.11-0.01-0.17-0.02c-3.18-0.41-6.26-1.41-9.06-2.93c-0.11-0.06-0.21-0.12-0.32-0.18
		c-0.51-0.9-0.95-1.82-1.34-2.76c1.38,0.2,2.77,0.3,4.16,0.3c2.69,0,5.36-0.37,7.95-1.09c0.68,2.21,1.08,4.52,1.14,6.86
		C30.34,58.15,30.27,58.15,30.19,58.15z M17.13,48.04l6.54-6.54c1.67,1.82,3.06,3.87,4.13,6.06C24.33,48.46,20.69,48.63,17.13,48.04
		z M26.49,38.68l4.01-4.01l7.54,7.54c-1.97,1.69-4.15,3.04-6.45,4.04C30.3,43.5,28.58,40.94,26.49,38.68z M33.32,31.85l4.95-4.95
		c2.14,1.99,4.53,3.63,7.09,4.9c-1.03,2.72-2.54,5.3-4.5,7.59L33.32,31.85z M38.37,21.16c-1.02-1.28-1.91-2.64-2.66-4.06
		c2.36-0.49,4.78-0.65,7.19-0.46L38.37,21.16z M35.53,24l-5.03,5.03l-6.29-6.29c2.29-1.96,4.87-3.47,7.59-4.5
		C32.81,20.28,34.05,22.21,35.53,24z M41.09,24.08l5.6-5.6c0.52,3.14,0.45,6.33-0.19,9.42C44.56,26.87,42.74,25.6,41.09,24.08z
		 M30.29,14.54c-3.2,1.23-6.22,3.03-8.9,5.37l-6.95-6.95c3.95-3.38,8.93-5.59,14.4-6.08C28.98,9.52,29.48,12.09,30.29,14.54z
		 M27.68,31.85l-4.1,4.1c-1.91-1.57-4.01-2.89-6.23-3.93c1-2.3,2.35-4.48,4.04-6.45L27.68,31.85z M20.74,38.78l-5.45,5.45
		c-0.22-2.84,0.04-5.69,0.75-8.43C17.7,36.62,19.28,37.62,20.74,38.78z M33.04,49.96c2.8-1.2,5.45-2.85,7.83-4.93l6.95,6.95
		c-3.71,3.18-8.33,5.32-13.42,5.97C34.31,55.23,33.85,52.54,33.04,49.96z M11.6,54.82c0.74,0.65,1.51,1.25,2.3,1.82
		c0.08,0.06,0.16,0.11,0.24,0.17c0.27,0.19,0.54,0.37,0.81,0.55c0.28,0.18,0.55,0.36,0.84,0.53c0.03,0.02,0.06,0.04,0.09,0.06
		c0.05,0.04,0.11,0.08,0.16,0.11c4.69,2.77,9.89,4.12,15.06,4.12c0.76,0,1.53-0.04,2.29-0.1c0,0,0.01,0,0.02,0
		c0.42-0.03,0.84-0.07,1.26-0.12c0.11-0.01,0.21-0.02,0.32-0.04c0.27-0.04,0.55-0.08,0.82-0.12c0.23-0.04,0.47-0.08,0.7-0.12
		c0.19-0.03,0.37-0.07,0.56-0.11c0.3-0.06,0.6-0.13,0.9-0.2c0.16-0.04,0.33-0.08,0.49-0.12c0.31-0.08,0.61-0.16,0.91-0.25
		c0.16-0.05,0.33-0.1,0.49-0.15c0.29-0.09,0.58-0.18,0.87-0.28c0.18-0.06,0.36-0.12,0.53-0.19c0.26-0.1,0.52-0.19,0.78-0.3
		c0.21-0.08,0.41-0.17,0.62-0.25c0.1-0.04,0.2-0.09,0.3-0.13c3.34-1.45,6.46-3.53,9.16-6.23c3.11-3.11,5.41-6.78,6.86-10.71
		c0.02-0.07,0.05-0.13,0.07-0.2c0.12-0.34,0.24-0.68,0.35-1.02c0.03-0.1,0.07-0.21,0.1-0.31c0.06-0.19,0.12-0.38,0.17-0.58
		c0.04-0.13,0.07-0.25,0.11-0.38c0.08-0.31,0.16-0.61,0.23-0.92c0.03-0.11,0.05-0.23,0.08-0.34c0.09-0.42,0.18-0.83,0.26-1.25
		c0-0.01,0-0.02,0.01-0.03c0.81-4.48,0.58-9.14-0.72-13.59c-0.05-0.16-0.1-0.32-0.15-0.47c-0.08-0.25-0.15-0.5-0.24-0.74
		c-0.09-0.26-0.18-0.51-0.27-0.76c-0.05-0.14-0.1-0.28-0.16-0.41c-0.12-0.3-0.24-0.6-0.36-0.89c-0.03-0.07-0.07-0.15-0.1-0.22
		c-1.21-2.77-2.84-5.35-4.87-7.67l4.01-4.01c5.8,6.48,8.98,14.77,8.98,23.54c0,19.48-15.85,35.34-35.34,35.34
		c-8.77,0-17.05-3.17-23.54-8.98L11.6,54.82z"/>
</g>
</svg>
