<?xml version="1.0" encoding="utf-8"?>
<!-- Generator: Adobe Illustrator 25.2.1, SVG Export Plug-In . SVG Version: 6.00 Build 0)  -->
<svg version="1.1" id="Layer_1" xmlns="http://www.w3.org/2000/svg" xmlns:xlink="http://www.w3.org/1999/xlink" x="0px" y="0px"
	 viewBox="0 0 100 79.59" style="enable-background:new 0 0 100 79.59;" xml:space="preserve">
<style type="text/css">
	.st0{fill:#FFFFFF;}
</style>
<g>
	<g>
		<path class="st0" d="M10.01,31.28c3.08,0,5.59-2.51,5.59-5.59c0-0.9-0.22-1.74-0.6-2.5l9.29-8.94c0.69,0.31,1.45,0.48,2.26,0.48
			c1.3,0,2.49-0.45,3.44-1.2l6.75,5.09c-0.04,0.25-0.06,0.51-0.06,0.77c0,3.08,2.51,5.59,5.59,5.59c3.08,0,5.59-2.51,5.59-5.59
			c0-0.8-0.17-1.56-0.48-2.25l7.32-7.06c0.92,0.68,2.06,1.08,3.29,1.08c0.6,0,1.17-0.1,1.71-0.27l9.5,15.08
			c-0.67,0.92-1.07,2.05-1.07,3.28c0,3.08,2.51,5.59,5.59,5.59c3.08,0,5.59-2.51,5.59-5.59c0-0.81-0.18-1.57-0.49-2.27l9.22-12.44
			c0.45,0.12,0.91,0.18,1.4,0.18c3.08,0,5.59-2.51,5.59-5.59s-2.51-5.59-5.59-5.59c-3.08,0-5.59,2.51-5.59,5.59
			c0,1.13,0.34,2.18,0.91,3.05L75.9,24.14c-0.68-0.29-1.42-0.46-2.2-0.46c-0.39,0-0.76,0.04-1.13,0.11L62.84,8.34
			c0.46-0.81,0.73-1.75,0.73-2.75c0-3.08-2.51-5.59-5.59-5.59C54.9,0,52.4,2.51,52.4,5.59c0,0.35,0.04,0.69,0.1,1.02l-7.97,7.69
			c-0.69-0.31-1.45-0.48-2.26-0.48c-1.34,0-2.57,0.48-3.54,1.27l-6.67-5.03c0.05-0.29,0.08-0.59,0.08-0.9
			c0-3.08-2.51-5.59-5.59-5.59s-5.59,2.51-5.59,5.59c0,0.8,0.17,1.56,0.48,2.25l-9.43,9.07c-0.62-0.24-1.29-0.38-2-0.38
			c-3.08,0-5.59,2.51-5.59,5.59S6.93,31.28,10.01,31.28z M89.42,7.6c0.86,0,1.56,0.7,1.56,1.56c0,0.86-0.7,1.56-1.56,1.56
			c-0.86,0-1.56-0.7-1.56-1.56C87.86,8.3,88.56,7.6,89.42,7.6z M75.26,29.27c0,0.86-0.7,1.56-1.56,1.56c-0.86,0-1.56-0.7-1.56-1.56
			c0-0.53,0.27-1.01,0.68-1.29c0,0,0,0,0,0c0,0,0.01,0,0.01-0.01c0.25-0.17,0.54-0.26,0.86-0.26
			C74.56,27.71,75.26,28.41,75.26,29.27z M57.98,4.03c0.86,0,1.56,0.7,1.56,1.56s-0.7,1.56-1.56,1.56s-1.56-0.7-1.56-1.56
			S57.12,4.03,57.98,4.03z M42.27,17.85c0.86,0,1.56,0.7,1.56,1.56c0,0.86-0.7,1.56-1.56,1.56c-0.86,0-1.56-0.7-1.56-1.56
			C40.71,18.55,41.41,17.85,42.27,17.85z M26.55,7.6c0.86,0,1.56,0.7,1.56,1.56c0,0.86-0.7,1.56-1.56,1.56s-1.56-0.7-1.56-1.56
			C24.99,8.3,25.69,7.6,26.55,7.6z M10.01,24.14c0.86,0,1.56,0.7,1.56,1.56s-0.7,1.56-1.56,1.56c-0.86,0-1.56-0.7-1.56-1.56
			S9.15,24.14,10.01,24.14z"/>
	</g>
	<g>
		<path class="st0" d="M97.99,75.56h-7.3V19.4c0-1.11-0.9-2.01-2.01-2.01c-1.11,0-2.01,0.9-2.01,2.01v56.16H75.22V40.52
			c0-1.11-0.9-2.01-2.01-2.01c-1.11,0-2.01,0.9-2.01,2.01v35.04H59.75V19.4c0-1.11-0.9-2.01-2.01-2.01s-2.01,0.9-2.01,2.01v56.16
			H44.28v-43.1c0-1.11-0.9-2.01-2.01-2.01s-2.01,0.9-2.01,2.01v43.1H28.81V24.41c0-1.11-0.9-2.01-2.01-2.01s-2.01,0.9-2.01,2.01
			v51.16H13.34V40.52c0-1.11-0.9-2.01-2.01-2.01s-2.01,0.9-2.01,2.01v35.04h-7.3C0.9,75.56,0,76.46,0,77.58
			c0,1.11,0.9,2.01,2.01,2.01h95.97c1.11,0,2.01-0.9,2.01-2.01C100,76.46,99.1,75.56,97.99,75.56z"/>
	</g>
</g>
</svg>
