<?xml version="1.0" encoding="utf-8"?>
<!-- Generator: Adobe Illustrator 25.2.1, SVG Export Plug-In . SVG Version: 6.00 Build 0)  -->
<svg version="1.1" id="Layer_1" xmlns="http://www.w3.org/2000/svg" xmlns:xlink="http://www.w3.org/1999/xlink" x="0px" y="0px"
	 viewBox="0 0 100 86.28" style="enable-background:new 0 0 100 86.28;" xml:space="preserve">
<style type="text/css">
	.st0{fill:#FFFFFF;}
</style>
<g>
	<path class="st0" d="M99.51,69.93L99.51,69.93c-0.83-2.59-2.62-4.71-5.04-5.95c-1.83-0.94-3.85-1.3-5.84-1.06
		c0-0.01,0-0.01-0.01-0.02L72.87,13.7h13.05c1.09,0,1.97-0.88,1.97-1.97V1.97C87.9,0.88,87.01,0,85.93,0H4.8
		C3.71,0,2.83,0.88,2.83,1.97v9.77c0,1.09,0.88,1.97,1.97,1.97h3.42v52.37c0,0.01,0,0.02,0,0.02C3.54,67.01,0,71.15,0,76.09
		c0,5.62,4.57,10.19,10.19,10.19c5.62,0,10.19-4.57,10.19-10.19c0-4.95-3.54-9.08-8.23-10c0-0.01,0-0.02,0-0.02V13.7h18.82v52.37
		c0,0.01,0,0.02,0,0.02c-4.68,0.92-8.23,5.05-8.23,10c0,5.62,4.57,10.19,10.19,10.19c5.62,0,10.19-4.57,10.19-10.19
		c0-4.95-3.54-9.08-8.23-10c0-0.01,0-0.02,0-0.02V13.7h18.82v52.37c0,0.01,0,0.02,0,0.02c-4.68,0.92-8.23,5.05-8.23,10
		c0,5.62,4.57,10.19,10.19,10.19c5.62,0,10.19-4.57,10.19-10.19c0-4.95-3.54-9.08-8.23-10c0-0.01,0-0.02,0-0.02V13.7h11.08
		l16.14,50.39c0,0.01,0.01,0.01,0.01,0.02c-4.18,2.3-6.29,7.32-4.79,12.03c1.38,4.32,5.4,7.08,9.71,7.08c1.03,0,2.07-0.16,3.1-0.49
		C98.27,81.03,101.23,75.28,99.51,69.93z M16.45,76.09c0,3.45-2.81,6.26-6.26,6.26c-3.45,0-6.26-2.81-6.26-6.26
		c0-3.45,2.81-6.26,6.26-6.26C13.64,69.84,16.45,72.64,16.45,76.09z M39.2,76.09c0,3.45-2.81,6.26-6.26,6.26
		c-3.45,0-6.26-2.81-6.26-6.26c0-3.45,2.81-6.26,6.26-6.26C36.4,69.84,39.2,72.64,39.2,76.09z M61.96,76.09
		c0,3.45-2.81,6.26-6.26,6.26c-3.45,0-6.26-2.81-6.26-6.26c0-3.45,2.81-6.26,6.26-6.26C59.15,69.84,61.96,72.64,61.96,76.09z
		 M6.77,3.93h77.19v5.83H6.77V3.93z M91.72,78.99c-3.28,1.05-6.82-0.77-7.87-4.05c-1.05-3.29,0.77-6.82,4.05-7.87
		c0.63-0.2,1.27-0.3,1.91-0.3c0.98,0,1.96,0.23,2.86,0.7c1.49,0.77,2.58,2.06,3.09,3.65v0C96.82,74.41,95,77.94,91.72,78.99z"/>
</g>
</svg>
