<?xml version="1.0" encoding="utf-8"?>
<!-- Generator: Adobe Illustrator 25.2.1, SVG Export Plug-In . SVG Version: 6.00 Build 0)  -->
<svg version="1.1" id="Layer_1" xmlns="http://www.w3.org/2000/svg" xmlns:xlink="http://www.w3.org/1999/xlink" x="0px" y="0px"
	 viewBox="0 0 100 86.3" style="enable-background:new 0 0 100 86.3;" xml:space="preserve">
<style type="text/css">
	.st0{fill:#EB2C32;}
</style>
<g>
	<path class="st0" d="M99.5,69.9L99.5,69.9c-0.8-2.6-2.6-4.7-5-6c-1.8-0.9-3.8-1.3-5.8-1.1c0,0,0,0,0,0L72.9,13.7h13.1
		c1.1,0,2-0.9,2-2V2c0-1.1-0.9-2-2-2H4.8c-1.1,0-2,0.9-2,2v9.8c0,1.1,0.9,2,2,2h3.4v52.4c0,0,0,0,0,0C3.5,67,0,71.1,0,76.1
		c0,5.6,4.6,10.2,10.2,10.2s10.2-4.6,10.2-10.2c0-4.9-3.5-9.1-8.2-10c0,0,0,0,0,0V13.7H31v52.4c0,0,0,0,0,0c-4.7,0.9-8.2,5.1-8.2,10
		c0,5.6,4.6,10.2,10.2,10.2s10.2-4.6,10.2-10.2c0-4.9-3.5-9.1-8.2-10c0,0,0,0,0,0V13.7h18.8v52.4c0,0,0,0,0,0
		c-4.7,0.9-8.2,5.1-8.2,10c0,5.6,4.6,10.2,10.2,10.2s10.2-4.6,10.2-10.2c0-4.9-3.5-9.1-8.2-10c0,0,0,0,0,0V13.7h11.1l16.1,50.4
		c0,0,0,0,0,0c-4.2,2.3-6.3,7.3-4.8,12c1.4,4.3,5.4,7.1,9.7,7.1c1,0,2.1-0.2,3.1-0.5C98.3,81,101.2,75.3,99.5,69.9z M16.5,76.1
		c0,3.4-2.8,6.3-6.3,6.3s-6.3-2.8-6.3-6.3c0-3.4,2.8-6.3,6.3-6.3C13.6,69.8,16.5,72.6,16.5,76.1z M39.2,76.1c0,3.4-2.8,6.3-6.3,6.3
		c-3.5,0-6.3-2.8-6.3-6.3c0-3.4,2.8-6.3,6.3-6.3C36.4,69.8,39.2,72.6,39.2,76.1z M62,76.1c0,3.4-2.8,6.3-6.3,6.3s-6.3-2.8-6.3-6.3
		c0-3.4,2.8-6.3,6.3-6.3C59.2,69.8,62,72.6,62,76.1z M6.8,3.9H84v5.8H6.8V3.9z M91.7,79c-3.3,1.1-6.8-0.8-7.9-4.1
		c-1.1-3.3,0.8-6.8,4.1-7.9c0.6-0.2,1.3-0.3,1.9-0.3c1,0,2,0.2,2.9,0.7c1.5,0.8,2.6,2.1,3.1,3.7l0,0C96.8,74.4,95,77.9,91.7,79z"/>
</g>
</svg>
