<?xml version="1.0" encoding="utf-8"?>
<!-- Generator: Adobe Illustrator 25.2.1, SVG Export Plug-In . SVG Version: 6.00 Build 0)  -->
<svg version="1.1" id="Layer_1" xmlns="http://www.w3.org/2000/svg" xmlns:xlink="http://www.w3.org/1999/xlink" x="0px" y="0px"
	 viewBox="0 0 78.39 100" style="enable-background:new 0 0 78.39 100;" xml:space="preserve">
<style type="text/css">
	.st0{fill:#FFFFFF;}
</style>
<path class="st0" d="M69.63,28.88c-0.12,0-0.23,0.03-0.35,0.04l-8.98-8.1l3.17-3.52c0.36-0.4,0.55-0.93,0.52-1.46
	c-0.03-0.49-0.24-0.93-0.58-1.28l2.94-3.26c0.36-0.4,0.55-0.93,0.52-1.46c-0.03-0.54-0.27-1.04-0.67-1.4l-8.77-7.91
	c-0.83-0.75-2.12-0.69-2.87,0.15l-2.94,3.26c-0.83-0.64-2.02-0.57-2.74,0.23L31.03,23.96c-0.36,0.4-0.55,0.93-0.52,1.46
	c0.02,0.49,0.24,0.93,0.58,1.28l-2.94,3.26c-0.36,0.4-0.55,0.93-0.52,1.46c0.03,0.54,0.27,1.04,0.67,1.4l8.77,7.91
	c0.39,0.35,0.87,0.52,1.36,0.52c0.55,0,1.11-0.23,1.51-0.67l2.94-3.26c0.37,0.28,0.79,0.44,1.23,0.44c0.55,0,1.11-0.23,1.51-0.67
	l5.54-6.14l10.11,9.12c0.12,0.42,0.26,0.83,0.44,1.22l-7.5,20.91h-6.01v-4.37c0-1.12-0.91-2.03-2.03-2.03H19.39
	c-1.12,0-2.03,0.91-2.03,2.03v6.41c0,1.12,0.91,2.03,2.03,2.03h33.36L48.26,78.8H12.63c-1.12,0-2.03,0.91-2.03,2.03v6.54H2.03
	C0.91,87.37,0,88.28,0,89.4v8.57C0,99.09,0.91,100,2.03,100h63.68c1.12,0,2.03-0.91,2.03-2.03V89.4c0-1.12-0.91-2.03-2.03-2.03
	h-2.97v-6.54c0-0.38-0.14-0.72-0.32-1.03l12.63-35.23c0.01-0.04,0.01-0.08,0.02-0.12c2.01-1.61,3.32-4.05,3.32-6.81
	C78.39,32.81,74.46,28.88,69.63,28.88z M44.13,62.22H21.42v-2.34h22.72V62.22z M56.23,4.9l5.75,5.19l-1.56,1.73l-5.75-5.19
	L56.23,4.9z M38.28,36.37l-5.75-5.19l1.56-1.73l5.75,5.19L38.28,36.37z M43.95,32.88l-6.59-5.95l-1.95-1.76L50.56,8.38l4.27,3.85
	l4.27,3.85L43.95,32.88z M61.4,34.75l-7.41-6.68l3.72-4.12l7.09,6.4C63.23,31.39,62.04,32.94,61.4,34.75z M14.66,82.86h44.02v4.51
	H14.66V82.86z M63.68,91.43v4.51H4.06v-4.51H63.68z M58.47,78.8h-5.9l12.16-33.9c1.4,0.95,3.09,1.5,4.9,1.5
	c0.16,0,0.31-0.04,0.47-0.05L58.47,78.8z M69.63,42.34c-2.59,0-4.7-2.11-4.7-4.7c0-2.59,2.11-4.7,4.7-4.7c2.59,0,4.7,2.11,4.7,4.7
	C74.33,40.24,72.22,42.34,69.63,42.34z"/>
</svg>
