<?xml version="1.0" encoding="utf-8"?>
<!-- Generator: Adobe Illustrator 25.2.1, SVG Export Plug-In . SVG Version: 6.00 Build 0)  -->
<svg version="1.1" id="Layer_1" xmlns="http://www.w3.org/2000/svg" xmlns:xlink="http://www.w3.org/1999/xlink" x="0px" y="0px"
	 viewBox="0 0 100 90.1" style="enable-background:new 0 0 100 90.1;" xml:space="preserve">
<style type="text/css">
	.st0{fill:#EB2C32;}
</style>
<g>
	<g>
		<path class="st0" d="M46.3,56.8c-3.2-1.7-5.1-4.9-5.1-8.5c0-1.8,0.5-3.7,1.5-5.2c0.6-1,0.3-2.2-0.6-2.8s-2.2-0.3-2.8,0.6
			c-1.4,2.2-2.2,4.8-2.2,7.4c0,5.1,2.8,9.7,7.3,12.1c0.3,0.2,0.6,0.2,1,0.2c0.7,0,1.4-0.4,1.8-1.1C47.7,58.5,47.3,57.3,46.3,56.8z"
			/>
	</g>
	<g>
		<path class="st0" d="M93.3,43.6c-3.7,0-6.7,3-6.7,6.7c0,1.8,0.8,3.5,2,4.8l-7,12.5c-1.4-0.6-2.9-1-4.5-1c-1.7,0-3.4,0.4-4.8,1.2
			l-4.9-5.6c3.1-3.8,5-8.6,5-13.8c0-8.6-5.1-16.1-12.5-19.6l1.7-9.3c0.3,0,0.5,0,0.8-0.1c2.6-0.3,4.9-1.6,6.5-3.6
			c1.6-2,2.3-4.6,2.1-7.2l0,0c-0.3-2.6-1.6-4.9-3.6-6.5c-2-1.6-4.6-2.3-7.2-2s-4.9,1.6-6.5,3.6c-1.6,2-2.3,4.6-2,7.2
			c0.4,3.6,2.8,6.5,5.9,7.9L56,27.3c-1.7-0.4-3.4-0.6-5.2-0.6c-5.7,0-10.9,2.2-14.7,5.8L25.5,22c1.6-2.3,2.5-5,2.5-8
			c0-7.7-6.3-14-14-14C6.3,0,0,6.3,0,14c0,6.4,4.3,11.8,10.2,13.5v14.8c-4,0.9-7,4.5-7,8.8c0,5,4.1,9.1,9.1,9.1s9.1-4.1,9.1-9.1
			c0-4.3-3-7.9-7-8.8V28c3.2-0.1,6.1-1.2,8.5-3l10.6,10.6c-2.6,3.6-4.1,8-4.1,12.7c0,4.7,1.5,9.1,4.1,12.6l-9.5,8.6
			c-1.8-1.2-4-1.9-6.3-1.9c-6.2,0-11.3,5.1-11.3,11.3s5.1,11.3,11.3,11.3S28.8,85,28.8,78.8c0-2.4-0.8-4.6-2-6.5L36,64
			c3.9,3.7,9.1,5.9,14.8,5.9c5.2,0,9.9-1.8,13.6-4.9l4.6,5.3c-1.6,1.8-2.5,4.2-2.5,6.8c0,5.8,4.7,10.6,10.6,10.6s10.6-4.7,10.6-10.6
			c0-2.7-1.1-5.2-2.8-7.1l7.3-13.1c0.3,0.1,0.7,0.1,1.1,0.1c3.7,0,6.7-3,6.7-6.7C100,46.6,97,43.6,93.3,43.6z M55.7,10.4
			c-0.2-1.5,0.2-3,1.2-4.2s2.3-1.9,3.8-2.1c0.2,0,0.4,0,0.7,0c1.3,0,2.5,0.4,3.5,1.2c1.2,0.9,1.9,2.3,2.1,3.8l0,0
			c0.2,1.5-0.2,3-1.2,4.1s-2.3,1.9-3.8,2.1C58.8,15.7,56,13.4,55.7,10.4z M4.1,14c0-5.5,4.5-9.9,9.9-9.9s9.9,4.5,9.9,9.9
			s-4.5,9.9-9.9,9.9S4.1,19.5,4.1,14z M17.2,51.1c0,2.8-2.2,5-5,5s-5-2.2-5-5c0-2.8,2.2-5,5-5C15,46.1,17.2,48.4,17.2,51.1z
			 M17.5,86c-4,0-7.2-3.2-7.2-7.2c0-4,3.2-7.2,7.2-7.2s7.2,3.2,7.2,7.2S21.5,86,17.5,86z M33.3,48.3c0-9.6,7.8-17.5,17.5-17.5
			s17.5,7.8,17.5,17.5s-7.8,17.5-17.5,17.5S33.3,57.9,33.3,48.3z M77.1,83.6c-3.6,0-6.5-2.9-6.5-6.5c0-3.6,2.9-6.5,6.5-6.5
			c3.6,0,6.5,2.9,6.5,6.5C83.6,80.7,80.7,83.6,77.1,83.6z M93.3,52.9c-1.4,0-2.6-1.2-2.6-2.6c0-1.5,1.2-2.6,2.6-2.6
			c1.4,0,2.6,1.2,2.6,2.6C95.9,51.7,94.7,52.9,93.3,52.9z"/>
	</g>
</g>
</svg>
