<?xml version="1.0" encoding="utf-8"?>
<!-- Generator: Adobe Illustrator 25.2.1, SVG Export Plug-In . SVG Version: 6.00 Build 0)  -->
<svg version="1.1" id="Layer_1" xmlns="http://www.w3.org/2000/svg" xmlns:xlink="http://www.w3.org/1999/xlink" x="0px" y="0px"
	 viewBox="0 0 100 90.08" style="enable-background:new 0 0 100 90.08;" xml:space="preserve">
<style type="text/css">
	.st0{fill:#FFFFFF;}
</style>
<g>
	<g>
		<path class="st0" d="M46.32,56.76c-3.15-1.67-5.11-4.92-5.11-8.48c0-1.85,0.53-3.65,1.53-5.2c0.61-0.95,0.34-2.21-0.61-2.82
			c-0.95-0.61-2.21-0.34-2.82,0.61c-1.43,2.21-2.18,4.77-2.18,7.41c0,5.08,2.79,9.71,7.29,12.09c0.3,0.16,0.63,0.24,0.95,0.24
			c0.73,0,1.44-0.39,1.81-1.09C47.69,58.52,47.31,57.28,46.32,56.76z"/>
	</g>
	<g>
		<path class="st0" d="M93.3,43.57c-3.7,0-6.7,3.01-6.7,6.7c0,1.85,0.76,3.53,1.98,4.75l-7,12.52c-1.36-0.64-2.88-1-4.47-1
			c-1.74,0-3.39,0.43-4.84,1.18l-4.91-5.62c3.13-3.75,5.02-8.57,5.02-13.82c0-8.65-5.12-16.12-12.48-19.56l1.66-9.29
			c0.28-0.01,0.55-0.02,0.83-0.06c2.58-0.29,4.89-1.58,6.5-3.61c1.62-2.03,2.34-4.57,2.05-7.15v0c-0.29-2.58-1.57-4.89-3.61-6.5
			c-2.03-1.62-4.57-2.34-7.15-2.05c-2.58,0.29-4.89,1.58-6.5,3.61c-1.62,2.03-2.34,4.57-2.05,7.15c0.41,3.62,2.77,6.54,5.91,7.86
			l-1.55,8.65c-1.67-0.41-3.41-0.64-5.2-0.64c-5.69,0-10.87,2.22-14.72,5.82L25.53,21.98c1.57-2.26,2.5-5.01,2.5-7.97
			C28.03,6.29,21.74,0,14.01,0C6.29,0,0,6.29,0,14.01c0,6.41,4.32,11.82,10.2,13.48v14.79c-4.02,0.93-7.03,4.53-7.03,8.83
			c0,5,4.07,9.07,9.07,9.07s9.07-4.07,9.07-9.07c0-4.3-3.01-7.9-7.03-8.83V28.02c3.19-0.06,6.13-1.19,8.46-3.05l10.61,10.61
			c-2.6,3.57-4.15,7.95-4.15,12.7c0,4.7,1.52,9.06,4.08,12.61l-9.46,8.58c-1.8-1.22-3.98-1.94-6.32-1.94
			c-6.22,0-11.28,5.06-11.28,11.28c0,6.22,5.06,11.28,11.28,11.28c6.22,0,11.28-5.06,11.28-11.28c0-2.41-0.76-4.64-2.05-6.47
			l9.24-8.38c3.87,3.66,9.08,5.9,14.81,5.9c5.18,0,9.93-1.83,13.65-4.88l4.62,5.29c-1.57,1.84-2.52,4.23-2.52,6.84
			c0,5.82,4.74,10.56,10.56,10.56c5.82,0,10.56-4.74,10.56-10.56c0-2.74-1.05-5.24-2.77-7.12l7.33-13.1c0.35,0.06,0.72,0.1,1.09,0.1
			c3.7,0,6.7-3.01,6.7-6.7C100,46.58,96.99,43.57,93.3,43.57z M55.68,10.36c-0.17-1.5,0.25-2.97,1.19-4.15
			c0.94-1.18,2.28-1.92,3.77-2.09c0.22-0.02,0.43-0.04,0.65-0.04c1.27,0,2.49,0.42,3.5,1.23c1.18,0.94,1.92,2.28,2.09,3.77l0,0
			c0.17,1.5-0.25,2.97-1.19,4.15c-0.94,1.18-2.28,1.92-3.77,2.09C58.83,15.67,56.03,13.44,55.68,10.36z M4.08,14.01
			c0-5.48,4.46-9.93,9.93-9.93s9.93,4.46,9.93,9.93s-4.46,9.93-9.93,9.93S4.08,19.49,4.08,14.01z M17.23,51.12
			c0,2.75-2.24,4.99-4.99,4.99c-2.75,0-4.99-2.24-4.99-4.99c0-2.75,2.24-4.99,4.99-4.99C14.99,46.13,17.23,48.37,17.23,51.12z
			 M17.51,86c-3.97,0-7.2-3.23-7.2-7.2c0-3.97,3.23-7.2,7.2-7.2c3.97,0,7.2,3.23,7.2,7.2C24.71,82.77,21.48,86,17.51,86z
			 M33.29,48.27c0-9.65,7.85-17.5,17.5-17.5s17.5,7.85,17.5,17.5c0,9.65-7.85,17.5-17.5,17.5S33.29,57.92,33.29,48.27z M77.1,83.57
			c-3.57,0-6.48-2.9-6.48-6.48c0-3.57,2.9-6.48,6.48-6.48c3.57,0,6.48,2.9,6.48,6.48C83.57,80.67,80.67,83.57,77.1,83.57z
			 M93.3,52.89c-1.45,0-2.62-1.18-2.62-2.62c0-1.45,1.18-2.62,2.62-2.62c1.45,0,2.62,1.18,2.62,2.62
			C95.92,51.72,94.74,52.89,93.3,52.89z"/>
	</g>
</g>
</svg>
