<?xml version="1.0" encoding="utf-8"?>
<!-- Generator: Adobe Illustrator 25.2.1, SVG Export Plug-In . SVG Version: 6.00 Build 0)  -->
<svg version="1.1" id="Layer_1" xmlns="http://www.w3.org/2000/svg" xmlns:xlink="http://www.w3.org/1999/xlink" x="0px" y="0px"
	 viewBox="0 0 65.39 100" style="enable-background:new 0 0 65.39 100;" xml:space="preserve">
<style type="text/css">
	.st0{fill:#FFFFFF;}
</style>
<g>
	<path class="st0" d="M65.01,27.54c-0.37-0.52-0.96-0.82-1.59-0.83c-1.87-0.02-18.42-0.1-23.48,3.53
		c-4.38,3.14-4.01,10.8-3.52,14.54c-1.18,1.25-2.26,2.62-3.23,4.09c-0.58-2.89-1.48-6.55-2.85-10.34c-0.62-1.72-1.3-3.34-2.03-4.86
		c0.53-1.06,1.86-3.89,2.83-7.24c1.73-5.98,1.43-10.53-0.9-13.5C25.37,6.69,4.85,0.73,2.53,0.08C1.92-0.1,1.26,0.03,0.76,0.42
		C0.27,0.81-0.02,1.42,0,2.05c0.07,2.41,0.86,23.77,5.73,30c2.16,2.77,6.07,4.17,11.61,4.17c0.41,0,0.84-0.01,1.27-0.02
		c2.43-0.09,4.66-0.41,6.18-0.68c3.8,8.06,5.06,17.09,5.32,19.21c-0.66,1.62-1.22,3.33-1.67,5.13c-1.74,6.88-1.42,12.89-1.27,14.68
		C15.12,75.57,5.63,85.7,5.63,98.01c0,1.1,0.89,1.99,1.99,1.99h43.15c1.1,0,1.99-0.89,1.99-1.99c0-12.33-9.52-22.47-21.6-23.48
		c-0.07-0.71-0.62-6.76,1.13-13.7c0.44-1.74,0.98-3.38,1.62-4.93c0.05-0.09,0.09-0.19,0.12-0.29c1.15-2.69,2.6-5.07,4.36-7.13
		c1.86,1,6.65,3.33,11.04,3.33c1.79,0,3.52-0.39,4.95-1.41c5.06-3.62,10.33-19.31,10.91-21.09C65.48,28.71,65.38,28.05,65.01,27.54z
		 M8.86,29.61C5.84,25.74,4.51,12.17,4.1,4.7c2.16,0.67,5.4,1.73,8.8,3.01c10.15,3.83,13.26,6.44,14.21,7.66
		c2.45,3.13,0.58,9.67-1.19,13.96c-3.78-5.95-8.57-9.7-14.13-10.97c-1.07-0.25-2.14,0.42-2.38,1.49c-0.25,1.07,0.42,2.14,1.49,2.38
		c5.23,1.2,9.08,4.99,11.9,9.59C18.22,32.52,11.33,32.77,8.86,29.61z M48.68,96.02H9.7c1-9.87,9.36-17.6,19.49-17.6
		S47.68,86.15,48.68,96.02z M52.06,47.17L52.06,47.17c-1.34,0.96-3.89,0.89-7.17-0.2c-1.35-0.45-2.59-0.99-3.52-1.44
		c2.17-1.82,4.66-3.3,7.47-4.42c1.02-0.41,1.52-1.56,1.11-2.58c-0.41-1.02-1.56-1.52-2.58-1.11c-2.65,1.05-5.06,2.4-7.22,4.03
		c-0.1-3.2,0.33-6.71,2.11-7.98c2.63-1.88,11.71-2.65,18.35-2.77C58.35,36.94,54.69,45.29,52.06,47.17z"/>
</g>
</svg>
