<?xml version="1.0" encoding="utf-8"?>
<!-- Generator: Adobe Illustrator 25.2.1, SVG Export Plug-In . SVG Version: 6.00 Build 0)  -->
<svg version="1.1" id="Layer_1" xmlns="http://www.w3.org/2000/svg" xmlns:xlink="http://www.w3.org/1999/xlink" x="0px" y="0px"
	 viewBox="0 0 65.4 100" style="enable-background:new 0 0 65.4 100;" xml:space="preserve">
<style type="text/css">
	.st0{fill:#EB2C32;}
</style>
<g>
	<path class="st0" d="M65,27.5c-0.4-0.5-1-0.8-1.6-0.8c-1.9,0-18.4-0.1-23.5,3.5c-4.4,3.1-4,10.8-3.5,14.5c-1.2,1.2-2.3,2.6-3.2,4.1
		c-0.6-2.9-1.5-6.5-2.9-10.3c-0.6-1.7-1.3-3.3-2-4.9c0.5-1.1,1.9-3.9,2.8-7.2c1.7-6,1.4-10.5-0.9-13.5C25.4,6.7,4.8,0.7,2.5,0.1
		C1.9-0.1,1.3,0,0.8,0.4C0.3,0.8,0,1.4,0,2c0.1,2.4,0.9,23.8,5.7,30c2.2,2.8,6.1,4.2,11.6,4.2c0.4,0,0.8,0,1.3,0
		c2.4-0.1,4.7-0.4,6.2-0.7c3.8,8.1,5.1,17.1,5.3,19.2c-0.7,1.6-1.2,3.3-1.7,5.1c-1.7,6.9-1.4,12.9-1.3,14.7
		C15.1,75.6,5.6,85.7,5.6,98c0,1.1,0.9,2,2,2h43.2c1.1,0,2-0.9,2-2c0-12.3-9.5-22.5-21.6-23.5c-0.1-0.7-0.6-6.8,1.1-13.7
		c0.4-1.7,1-3.4,1.6-4.9c0-0.1,0.1-0.2,0.1-0.3c1.2-2.7,2.6-5.1,4.4-7.1c1.9,1,6.7,3.3,11,3.3c1.8,0,3.5-0.4,5-1.4
		c5.1-3.6,10.3-19.3,10.9-21.1C65.5,28.7,65.4,28,65,27.5z M8.9,29.6c-3-3.9-4.3-17.4-4.8-24.9c2.2,0.7,5.4,1.7,8.8,3
		c10.1,3.8,13.3,6.4,14.2,7.7c2.5,3.1,0.6,9.7-1.2,14c-3.8-5.9-8.6-9.7-14.1-11c-1.1-0.2-2.1,0.4-2.4,1.5c-0.2,1.1,0.4,2.1,1.5,2.4
		c5.2,1.2,9.1,5,11.9,9.6C18.2,32.5,11.3,32.8,8.9,29.6z M48.7,96h-39c1-9.9,9.4-17.6,19.5-17.6S47.7,86.1,48.7,96z M52.1,47.2
		L52.1,47.2c-1.3,1-3.9,0.9-7.2-0.2c-1.3-0.5-2.6-1-3.5-1.4c2.2-1.8,4.7-3.3,7.5-4.4c1-0.4,1.5-1.6,1.1-2.6s-1.6-1.5-2.6-1.1
		c-2.7,1-5.1,2.4-7.2,4c-0.1-3.2,0.3-6.7,2.1-8c2.6-1.9,11.7-2.6,18.3-2.8C58.3,36.9,54.7,45.3,52.1,47.2z"/>
</g>
</svg>
