<?xml version="1.0" encoding="utf-8"?>
<!-- Generator: Adobe Illustrator 25.2.1, SVG Export Plug-In . SVG Version: 6.00 Build 0)  -->
<svg version="1.1" id="Layer_1" xmlns="http://www.w3.org/2000/svg" xmlns:xlink="http://www.w3.org/1999/xlink" x="0px" y="0px"
	 viewBox="0 0 98.89 100" style="enable-background:new 0 0 98.89 100;" xml:space="preserve">
<style type="text/css">
	.st0{fill:#FFFFFF;}
</style>
<g>
	<path class="st0" d="M98.81,26.92L91.68,1.46c-0.3-1.07-1.41-1.69-2.47-1.39L78.66,3.03c-0.51,0.14-0.95,0.48-1.21,0.95
		c-0.26,0.46-0.33,1.01-0.18,1.52l0.44,1.58l-24.96,7c-1.07,0.3-1.69,1.4-1.39,2.47l0.39,1.4L9.9,29.68
		c-0.9,0.25-1.49,1.09-1.46,1.99l-6.98,1.96c-0.51,0.14-0.95,0.48-1.21,0.95C0,35.04-0.07,35.59,0.07,36.1l2.48,8.85
		c0.25,0.88,1.05,1.46,1.93,1.46c0.18,0,0.36-0.02,0.54-0.07l6.99-1.96c0.18,0.31,0.43,0.58,0.75,0.76c0.3,0.17,0.64,0.26,0.98,0.26
		c0.18,0,0.36-0.02,0.54-0.07l27.45-7.69c-0.34,0.9-0.53,1.88-0.53,2.9c0,2.07,0.77,3.97,2.04,5.42l-18.73,49.7
		c-0.39,1.04,0.13,2.19,1.17,2.58c0.23,0.09,0.47,0.13,0.71,0.13c0.81,0,1.57-0.49,1.88-1.3l18.38-48.78
		c0.26,0.09,0.52,0.17,0.78,0.24V98c0,1.11,0.9,2,2,2s2-0.9,2-2V48.51c0.27-0.07,0.53-0.15,0.78-0.24l18.38,48.78
		c0.3,0.8,1.07,1.3,1.88,1.3c0.23,0,0.47-0.04,0.71-0.13c1.04-0.39,1.56-1.55,1.17-2.58l-18.73-49.7c1.27-1.45,2.04-3.35,2.04-5.42
		c0-2.63-1.24-4.97-3.16-6.48l1.62-0.46l0.39,1.4c0.25,0.88,1.05,1.46,1.93,1.46c0.18,0,0.36-0.02,0.54-0.07l24.96-7l0.44,1.58
		c0.25,0.88,1.05,1.46,1.93,1.46c0.18,0,0.36-0.02,0.54-0.07l10.55-2.96c0.51-0.14,0.95-0.48,1.21-0.95
		C98.89,27.98,98.96,27.43,98.81,26.92z M49.44,44.75c-2.33,0-4.23-1.9-4.23-4.23c0-2.33,1.9-4.23,4.23-4.23
		c2.33,0,4.23,1.9,4.23,4.23C53.67,42.85,51.78,44.75,49.44,44.75z M4.47,36.95l4.99-1.4l1.4,4.99l-4.99,1.4L4.47,36.95z
		 M15.14,40.92L12.92,33l39.92-11.19l2.22,7.92L15.14,40.92z M59.85,31.98l-0.39-1.4c0,0,0-0.01,0-0.01l-3.3-11.78l0,0l-0.39-1.4
		l23.03-6.46l4.09,14.59L59.85,31.98z M87.73,27.95l-0.44-1.57c0,0,0-0.01,0-0.01L82.11,7.92c0,0,0,0,0,0l-0.44-1.57l6.69-1.87
		l6.05,21.6L87.73,27.95z"/>
</g>
</svg>
