<?xml version="1.0" encoding="utf-8"?>
<!-- Generator: Adobe Illustrator 25.2.1, SVG Export Plug-In . SVG Version: 6.00 Build 0)  -->
<svg version="1.1" id="Layer_1" xmlns="http://www.w3.org/2000/svg" xmlns:xlink="http://www.w3.org/1999/xlink" x="0px" y="0px"
	 viewBox="0 0 98.9 100" style="enable-background:new 0 0 98.9 100;" xml:space="preserve">
<style type="text/css">
	.st0{fill:#EB2C32;}
</style>
<g>
	<path class="st0" d="M98.8,26.9L91.7,1.5c-0.3-1.1-1.4-1.7-2.5-1.4L78.7,3c-0.5,0.1-0.9,0.5-1.2,1c-0.3,0.5-0.3,1-0.2,1.5l0.4,1.6
		l-25,7c-1.1,0.3-1.7,1.4-1.4,2.5l0.4,1.4L9.9,29.7c-0.9,0.2-1.5,1.1-1.5,2l-7,2c-0.5,0.1-0.9,0.5-1.2,1c-0.2,0.5-0.3,1-0.2,1.5
		l2.5,8.8c0.2,0.9,1,1.5,1.9,1.5c0.2,0,0.4,0,0.5-0.1l7-2c0.2,0.3,0.4,0.6,0.8,0.8c0.3,0.2,0.6,0.3,1,0.3c0.2,0,0.4,0,0.5-0.1
		l27.5-7.7c-0.3,0.9-0.5,1.9-0.5,2.9c0,2.1,0.8,4,2,5.4L24.5,95.7c-0.4,1,0.1,2.2,1.2,2.6c0.2,0.1,0.5,0.1,0.7,0.1
		c0.8,0,1.6-0.5,1.9-1.3l18.4-48.8c0.3,0.1,0.5,0.2,0.8,0.2V98c0,1.1,0.9,2,2,2s2-0.9,2-2V48.5c0.3-0.1,0.5-0.2,0.8-0.2L70.6,97
		c0.3,0.8,1.1,1.3,1.9,1.3c0.2,0,0.5,0,0.7-0.1c1-0.4,1.6-1.6,1.2-2.6L55.6,45.9c1.3-1.5,2-3.3,2-5.4c0-2.6-1.2-5-3.2-6.5l1.6-0.5
		l0.4,1.4c0.2,0.9,1,1.5,1.9,1.5c0.2,0,0.4,0,0.5-0.1l25-7l0.4,1.6c0.2,0.9,1.1,1.5,1.9,1.5c0.2,0,0.4,0,0.5-0.1l10.6-3
		c0.5-0.1,0.9-0.5,1.2-1C98.9,28,99,27.4,98.8,26.9z M49.4,44.7c-2.3,0-4.2-1.9-4.2-4.2s1.9-4.2,4.2-4.2s4.2,1.9,4.2,4.2
		S51.8,44.7,49.4,44.7z M4.5,36.9l5-1.4l1.4,5l-5,1.4L4.5,36.9z M15.1,40.9L12.9,33l39.9-11.2l2.2,7.9L15.1,40.9z M59.8,32l-0.4-1.4
		v0l-3.3-11.8l0,0l-0.4-1.4l23-6.5l4.1,14.6L59.8,32z M87.7,27.9l-0.4-1.6v0L82.1,7.9l0,0l-0.4-1.6l6.7-1.9l6.1,21.6L87.7,27.9z"/>
</g>
</svg>
