<?xml version="1.0" encoding="utf-8"?>
<!-- Generator: Adobe Illustrator 25.2.1, SVG Export Plug-In . SVG Version: 6.00 Build 0)  -->
<svg version="1.1" id="Layer_1" xmlns="http://www.w3.org/2000/svg" xmlns:xlink="http://www.w3.org/1999/xlink" x="0px" y="0px"
	 viewBox="0 0 500 146.71" style="enable-background:new 0 0 500 146.71;" xml:space="preserve">
<style type="text/css">
	.st0{fill:#BFBFBF;}
	.st1{fill:#A3A3A3;}
	.st2{fill:#FFFFFF;}
</style>
<g>
	<g>
		<circle class="st0" cx="77.76" cy="47.77" r="47.77"/>
		
			<ellipse transform="matrix(0.4263 -0.9046 0.9046 0.4263 0.3596 61.2785)" class="st1" cx="48.49" cy="30.36" rx="11.6" ry="8.09"/>
		
			<ellipse transform="matrix(0.739 -0.6737 0.6737 0.739 11.8298 76.6665)" class="st1" cx="104.86" cy="23.07" rx="6.56" ry="10.53"/>
		
			<ellipse transform="matrix(0.9494 -0.314 0.314 0.9494 -7.5344 33.6829)" class="st1" cx="100.79" cy="40.23" rx="3.11" ry="4.98"/>
		
			<ellipse transform="matrix(0.3872 -0.922 0.922 0.3872 -6.4447 102.2717)" class="st1" cx="73.71" cy="55.98" rx="3.11" ry="4.98"/>
		
			<ellipse transform="matrix(0.9259 -0.3778 0.3778 0.9259 -19.2566 30.5434)" class="st1" cx="68.22" cy="64.35" rx="2.32" ry="1.47"/>
		
			<ellipse transform="matrix(0.6143 -0.7891 0.7891 0.6143 -12.2588 87.551)" class="st1" cx="83.43" cy="56.31" rx="1.47" ry="2.32"/>
		
			<ellipse transform="matrix(0.6143 -0.7891 0.7891 0.6143 6.563 72.5781)" class="st1" cx="77.52" cy="29.58" rx="0.74" ry="1.19"/>
		
			<ellipse transform="matrix(0.6144 -0.789 0.789 0.6144 -41.9181 75.6026)" class="st1" cx="56.39" cy="80.69" rx="0.74" ry="1.19"/>
		
			<ellipse transform="matrix(0.8371 -0.5471 0.5471 0.8371 -35.286 50.7466)" class="st1" cx="67.56" cy="84.62" rx="1.19" ry="0.74"/>
		
			<ellipse transform="matrix(0.9494 -0.3141 0.3141 0.9494 -14.6449 14.4575)" class="st1" cx="37.54" cy="52.67" rx="2.09" ry="3.4"/>
		
			<ellipse transform="matrix(0.9495 -0.3139 0.3139 0.9495 -15.324 16.7807)" class="st1" cx="44.45" cy="55.98" rx="1.41" ry="2.26"/>
		
			<ellipse transform="matrix(0.6292 -0.7772 0.7772 0.6292 11.6775 49.9358)" class="st1" cx="58.18" cy="12.73" rx="2.26" ry="1.41"/>
		
			<ellipse transform="matrix(0.6293 -0.7772 0.7772 0.6293 15.5238 56.2708)" class="st1" cx="66.75" cy="11.86" rx="1.02" ry="0.62"/>
		
			<ellipse transform="matrix(0.6293 -0.7772 0.7772 0.6293 -29.6407 107.1014)" class="st1" cx="97.44" cy="84.62" rx="2.43" ry="1.53"/>
		
			<ellipse transform="matrix(0.9912 -0.1323 0.1323 0.9912 -11.0595 12.0463)" class="st1" cx="85.12" cy="89.25" rx="1.7" ry="1.08"/>
		
			<ellipse transform="matrix(0.8728 -0.4881 0.4881 0.8728 -29.0813 53.3976)" class="st1" cx="87.9" cy="82.49" rx="2.04" ry="3.28"/>
		
			<ellipse transform="matrix(0.7585 -0.6517 0.6517 0.7585 -25.5145 80.8338)" class="st1" cx="96.3" cy="74.84" rx="3.28" ry="2.04"/>
		
			<ellipse transform="matrix(0.6163 -0.7875 0.7875 0.6163 -35.2911 56.361)" class="st1" cx="40.19" cy="64.4" rx="2.6" ry="4.19"/>
		
			<ellipse transform="matrix(0.4532 -0.8914 0.8914 0.4532 23.5675 124.7089)" class="st1" cx="113.44" cy="43.14" rx="4.98" ry="3.11"/>
	</g>
	<path class="st2" d="M29.48,32.13c0-5.43-0.14-9.6-0.28-11.82c-0.56-4.45-3.48-7.37-7.51-7.37c-3.61,0-6.12,2.23-7.09,6.12
		c-0.42,1.81-0.7,6.26-0.7,14.05v29.48c0,8.9,0.28,12.79,0.97,14.74c1.11,3.34,3.62,5.29,6.81,5.29c4.03,0,6.95-3.06,7.37-7.79
		c0.28-2.51,0.42-9.32,0.42-13.49h14.04v5.29c0,9.59-0.56,13.21-3.2,18.08c-3.48,6.81-10.29,10.85-18.5,10.85
		c-6.54,0-12.52-2.64-16.27-7.37C0.97,82.61,0,78.02,0,63.56V32.13C0,17.52,0.97,12.93,5.56,7.37C9.32,2.64,15.3,0,21.83,0
		c8.07,0,15.02,3.75,18.5,10.15c2.5,4.59,3.2,7.93,3.2,16.97v5.01H29.48z"/>
	<path class="st2" d="M160.36,94.15V30.04l-13.35,64.11h-6.26L126.7,30.04v64.11h-12.93V1.39h18.64l11.54,56.46l10.57-56.46h18.77
		v92.76H160.36z"/>
	<path class="st2" d="M234.35,94.15V30.04L221,94.15h-6.26L200.7,30.04v64.11h-12.93V1.39h18.64l11.54,56.46l10.57-56.46h18.77
		v92.76H234.35z"/>
	<path class="st2" d="M305.29,1.39v62.58c0,13.77-1.11,18.77-5.56,24.2c-3.76,4.59-9.74,7.37-16.14,7.37
		c-6.54,0-12.51-2.78-16.27-7.37c-4.45-5.42-5.56-10.57-5.56-24.2V1.39h13.91v61.05c0,8.76,0.28,12.93,0.97,14.88
		c1.11,3.34,3.62,5.29,6.95,5.29c3.48,0,6.12-2.23,7.1-6.12c0.42-1.81,0.69-6.26,0.69-14.05V1.39H305.29z"/>
	<path class="st2" d="M352.99,94.15l-20.16-57.3v57.3h-12.93V1.39h14.05l19.05,55.07V1.39h12.93v92.76H352.99z"/>
	<path class="st2" d="M394.3,94.15H380.4V1.39h13.91V94.15z"/>
	<path class="st2" d="M432.13,94.15h-13.91V14.33h-14.74V1.39h43.67v12.93h-15.02V94.15z"/>
	<path class="st2" d="M483.31,94.15h-13.91V56.6L452.02,1.39h14.46l9.87,36.44l9.6-36.44H500L483.31,56.6V94.15z"/>
	<g>
		<path class="st2" d="M1.06,140.67c2.52,0.89,4.92,1.57,7.49,1.57c3.58,0,4.98-1.62,4.98-4.03c0-5.59-12.91-3.86-12.91-13.59
			c0-5.03,4.3-8.16,9.95-8.16c2.4,0,4.81,0.45,7.16,1.34L16.49,122c-1.9-0.61-3.8-1.06-5.81-1.06c-3.07,0-4.64,1.45-4.64,3.69
			c0,5.25,12.91,4.08,12.91,13.59c0,5.14-4.14,8.5-10.29,8.5c-3.02,0-5.81-0.62-8.66-1.68L1.06,140.67z"/>
		<path class="st2" d="M32.71,129.32c0-7.55,4.03-12.86,11.91-12.86c3.19,0,5.98,0.56,9.06,1.51l-1.17,4.31
			c-2.57-0.84-4.86-1.34-7.6-1.34c-5.25,0-6.99,3.69-6.99,8.83v3.52c0,5.25,1.73,8.94,6.99,8.94c2.8,0,4.92-0.51,7.6-1.34l1.23,4.25
			c-3.07,0.95-5.93,1.57-9.11,1.57c-7.88,0-11.91-5.37-11.91-12.92V129.32z"/>
		<path class="st2" d="M68.05,109.14c0-1.73,1.34-3.02,3.13-3.02c1.79,0,3.13,1.29,3.13,3.02c0,1.73-1.34,3.07-3.13,3.07
			C69.39,112.22,68.05,110.87,68.05,109.14z M68.61,117.19h5.14v27.56c0,0.78-0.5,1.23-1.23,1.23h-3.91V117.19z"/>
		<path class="st2" d="M89.19,128.2c0-6.15,4.19-11.74,11.52-11.74c7.38,0,11.63,5.87,11.63,11.74v3.41c0,0.73-0.56,1.23-1.23,1.23
			H94.33v2.12c0,3.19,1.4,7.27,6.93,7.27c3.02,0,5.65-0.62,8.61-1.51l1.06,4.19c-3.3,1.06-6.26,1.79-9.62,1.79
			c-8.22,0-12.13-5.76-12.13-11.74V128.2z M107.19,129.04v-1.12c0-3.3-1.68-6.99-6.43-6.99c-4.75,0-6.43,3.69-6.43,6.99v1.12H107.19
			z"/>
		<path class="st2" d="M127.49,117.19h4.25l0.34,2.85c2.74-2.24,5.53-3.58,8.44-3.58c6.21,0,9.45,3.8,9.45,9.73v18.56
			c0,0.78-0.5,1.23-1.23,1.23h-3.91v-18.84c0-4.13-1.29-6.2-5.2-6.2c-2.52,0-4.7,1.34-6.99,3.24v21.8h-5.14V117.19z"/>
		<path class="st2" d="M165.12,129.32c0-7.55,4.03-12.86,11.91-12.86c3.19,0,5.98,0.56,9.06,1.51l-1.17,4.31
			c-2.57-0.84-4.86-1.34-7.6-1.34c-5.25,0-6.99,3.69-6.99,8.83v3.52c0,5.25,1.73,8.94,6.99,8.94c2.8,0,4.92-0.51,7.6-1.34l1.23,4.25
			c-3.07,0.95-5.93,1.57-9.11,1.57c-7.88,0-11.91-5.37-11.91-12.92V129.32z"/>
		<path class="st2" d="M199.9,128.2c0-6.15,4.19-11.74,11.52-11.74c7.38,0,11.63,5.87,11.63,11.74v3.41c0,0.73-0.56,1.23-1.23,1.23
			h-16.77v2.12c0,3.19,1.4,7.27,6.93,7.27c3.02,0,5.65-0.62,8.61-1.51l1.06,4.19c-3.3,1.06-6.26,1.79-9.62,1.79
			c-8.22,0-12.13-5.76-12.13-11.74V128.2z M217.9,129.04v-1.12c0-3.3-1.68-6.99-6.43-6.99s-6.43,3.69-6.43,6.99v1.12H217.9z"/>
		<path class="st2" d="M259.45,117.19h4.25l0.34,2.85c2.12-1.9,4.86-3.58,7.94-3.58c3.91,0,6.6,1.51,7.99,4.03
			c2.4-2.12,5.42-4.03,8.78-4.03c6.21,0,9.45,3.8,9.45,9.73v18.56c0,0.78-0.5,1.23-1.23,1.23h-3.91v-18.84c0-4.13-1.29-6.2-5.2-6.2
			c-2.4,0-4.7,1.45-6.71,3.24c0.17,0.67,0.22,1.4,0.22,2.12v19.68h-5.14v-18.84c0-4.13-1.29-6.2-5.14-6.2
			c-2.52,0-4.58,1.57-6.48,3.24v21.8h-5.14V117.19z"/>
		<path class="st2" d="M314.2,118.42c0-0.72,0.44-1.23,1.23-1.23h3.91v18.89c0,4.08,1.29,6.15,5.14,6.15c2.58,0,4.75-1.29,7.05-3.19
			v-21.86h5.14v28.79h-4.25l-0.39-2.85c-2.63,2.24-5.48,3.58-8.44,3.58c-6.2,0-9.39-3.8-9.39-9.73V118.42z"/>
		<path class="st2" d="M352.55,140.67c2.51,0.89,4.92,1.57,7.49,1.57c3.58,0,4.98-1.62,4.98-4.03c0-5.59-12.92-3.86-12.92-13.59
			c0-5.03,4.3-8.16,9.95-8.16c2.4,0,4.81,0.45,7.16,1.34l-1.23,4.19c-1.9-0.61-3.8-1.06-5.81-1.06c-3.08,0-4.64,1.45-4.64,3.69
			c0,5.25,12.92,4.08,12.92,13.59c0,5.14-4.14,8.5-10.29,8.5c-3.02,0-5.81-0.62-8.67-1.68L352.55,140.67z"/>
		<path class="st2" d="M384.2,128.2c0-6.15,4.19-11.74,11.52-11.74c7.38,0,11.63,5.87,11.63,11.74v3.41c0,0.73-0.56,1.23-1.23,1.23
			h-16.77v2.12c0,3.19,1.4,7.27,6.93,7.27c3.02,0,5.65-0.62,8.61-1.51l1.06,4.19c-3.3,1.06-6.26,1.79-9.62,1.79
			c-8.22,0-12.13-5.76-12.13-11.74V128.2z M402.2,129.04v-1.12c0-3.3-1.68-6.99-6.43-6.99c-4.75,0-6.43,3.69-6.43,6.99v1.12H402.2z"
			/>
		<path class="st2" d="M422.23,118.42c0-0.72,0.45-1.23,1.23-1.23h3.92v18.89c0,4.08,1.28,6.15,5.14,6.15
			c2.57,0,4.75-1.29,7.04-3.19v-21.86h5.14v28.79h-4.25l-0.39-2.85c-2.63,2.24-5.48,3.58-8.44,3.58c-6.21,0-9.39-3.8-9.39-9.73
			V118.42z"/>
		<path class="st2" d="M461.26,117.19h4.25l0.34,2.85c2.12-1.9,4.87-3.58,7.94-3.58c3.91,0,6.6,1.51,7.99,4.03
			c2.41-2.12,5.42-4.03,8.78-4.03c6.2,0,9.45,3.8,9.45,9.73v18.56c0,0.78-0.51,1.23-1.23,1.23h-3.91v-18.84c0-4.13-1.29-6.2-5.2-6.2
			c-2.4,0-4.7,1.45-6.71,3.24c0.17,0.67,0.22,1.4,0.22,2.12v19.68h-5.14v-18.84c0-4.13-1.28-6.2-5.14-6.2
			c-2.52,0-4.58,1.57-6.48,3.24v21.8h-5.14V117.19z"/>
	</g>
</g>
</svg>
